%TF.GenerationSoftware,KiCad,Pcbnew,9.0.2*%
%TF.CreationDate,2025-05-14T19:39:48+10:00*%
%TF.ProjectId,Calculator,43616c63-756c-4617-946f-722e6b696361,rev?*%
%TF.SameCoordinates,Original*%
%TF.FileFunction,Soldermask,Bot*%
%TF.FilePolarity,Negative*%
%FSLAX46Y46*%
G04 Gerber Fmt 4.6, Leading zero omitted, Abs format (unit mm)*
G04 Created by KiCad (PCBNEW 9.0.2) date 2025-05-14 19:39:48*
%MOMM*%
%LPD*%
G01*
G04 APERTURE LIST*
%ADD10R,1.600000X1.600000*%
%ADD11O,1.600000X1.600000*%
%ADD12C,1.750000*%
%ADD13C,4.000000*%
%ADD14C,2.500000*%
%ADD15R,1.700000X1.700000*%
%ADD16C,1.700000*%
%ADD17C,1.728000*%
%ADD18C,1.600000*%
G04 APERTURE END LIST*
D10*
%TO.C,D11*%
X153859000Y-125284000D03*
D11*
X153859000Y-117664000D03*
%TD*%
D12*
%TO.C,S7*%
X139571500Y-104805250D03*
D13*
X144651500Y-104805250D03*
D12*
X149731500Y-104805250D03*
D14*
X140841500Y-102265250D03*
X147191500Y-99725250D03*
%TD*%
D12*
%TO.C,S5*%
X101471500Y-104805250D03*
D13*
X106551500Y-104805250D03*
D12*
X111631500Y-104805250D03*
D14*
X102741500Y-102265250D03*
X109091500Y-99725250D03*
%TD*%
D10*
%TO.C,D14*%
X153859000Y-144334000D03*
D11*
X153859000Y-136714000D03*
%TD*%
D12*
%TO.C,S8*%
X158621500Y-104805250D03*
D13*
X163701500Y-104805250D03*
D12*
X168781500Y-104805250D03*
D14*
X159891500Y-102265250D03*
X166241500Y-99725250D03*
%TD*%
D12*
%TO.C,S1*%
X101471500Y-85755250D03*
D13*
X106551500Y-85755250D03*
D12*
X111631500Y-85755250D03*
D14*
X102741500Y-83215250D03*
X109091500Y-80675250D03*
%TD*%
D15*
%TO.C,J1*%
X125601500Y-40511500D03*
D16*
X128141500Y-40511500D03*
%TD*%
D10*
%TO.C,D5*%
X115759000Y-106234000D03*
D11*
X115759000Y-98614000D03*
%TD*%
D12*
%TO.C,S10*%
X120521500Y-123855250D03*
D13*
X125601500Y-123855250D03*
D12*
X130681500Y-123855250D03*
D14*
X121791500Y-121315250D03*
X128141500Y-118775250D03*
%TD*%
D12*
%TO.C,S14*%
X139571500Y-142905250D03*
D13*
X144651500Y-142905250D03*
D12*
X149731500Y-142905250D03*
D14*
X140841500Y-140365250D03*
X147191500Y-137825250D03*
%TD*%
D10*
%TO.C,D8*%
X172909000Y-106234000D03*
D11*
X172909000Y-98614000D03*
%TD*%
D12*
%TO.C,S2*%
X120521500Y-85755250D03*
D13*
X125601500Y-85755250D03*
D12*
X130681500Y-85755250D03*
D14*
X121791500Y-83215250D03*
X128141500Y-80675250D03*
%TD*%
D10*
%TO.C,D2*%
X134809000Y-87184000D03*
D11*
X134809000Y-79564000D03*
%TD*%
D10*
%TO.C,D4*%
X172909000Y-87184000D03*
D11*
X172909000Y-79564000D03*
%TD*%
D12*
%TO.C,S11*%
X139571500Y-123855250D03*
D13*
X144651500Y-123855250D03*
D12*
X149731500Y-123855250D03*
D14*
X140841500Y-121315250D03*
X147191500Y-118775250D03*
%TD*%
D10*
%TO.C,D13*%
X125284000Y-144334000D03*
D11*
X125284000Y-136714000D03*
%TD*%
D10*
%TO.C,D6*%
X134809000Y-106234000D03*
D11*
X134809000Y-98614000D03*
%TD*%
D12*
%TO.C,S4*%
X158621500Y-85755250D03*
D13*
X163701500Y-85755250D03*
D12*
X168781500Y-85755250D03*
D14*
X159891500Y-83215250D03*
X166241500Y-80675250D03*
%TD*%
D12*
%TO.C,S9*%
X101471500Y-123855250D03*
D13*
X106551500Y-123855250D03*
D12*
X111631500Y-123855250D03*
D14*
X102741500Y-121315250D03*
X109091500Y-118775250D03*
%TD*%
D10*
%TO.C,D7*%
X153859000Y-106234000D03*
D11*
X153859000Y-98614000D03*
%TD*%
D12*
%TO.C,S3*%
X139571500Y-85755250D03*
D13*
X144651500Y-85755250D03*
D12*
X149731500Y-85755250D03*
D14*
X140841500Y-83215250D03*
X147191500Y-80675250D03*
%TD*%
D10*
%TO.C,D9*%
X115759000Y-125284000D03*
D11*
X115759000Y-117664000D03*
%TD*%
D10*
%TO.C,D12*%
X172909000Y-134809000D03*
D11*
X172909000Y-127189000D03*
%TD*%
D12*
%TO.C,S6*%
X120521500Y-104805250D03*
D13*
X125601500Y-104805250D03*
D12*
X130681500Y-104805250D03*
D14*
X121791500Y-102265250D03*
X128141500Y-99725250D03*
%TD*%
D12*
%TO.C,S13*%
X110996500Y-142905250D03*
D13*
X116076500Y-142905250D03*
D12*
X121156500Y-142905250D03*
D14*
X112266500Y-140365250D03*
X118616500Y-137825250D03*
%TD*%
D10*
%TO.C,D10*%
X134809000Y-125284000D03*
D11*
X134809000Y-117664000D03*
%TD*%
D12*
%TO.C,S12*%
X158621500Y-133380250D03*
D13*
X163701500Y-133380250D03*
D12*
X168781500Y-133380250D03*
D14*
X159891500Y-130840250D03*
X166241500Y-128300250D03*
%TD*%
D17*
%TO.C,U1*%
X103217750Y-71467750D03*
X105757750Y-71467750D03*
X108297750Y-71467750D03*
X110837750Y-71467750D03*
X113377750Y-71467750D03*
X115917750Y-71467750D03*
X118457750Y-71467750D03*
X120997750Y-71467750D03*
X123537750Y-71467750D03*
X126077750Y-71467750D03*
X128617750Y-71467750D03*
X131157750Y-71467750D03*
X133697750Y-71467750D03*
X136237750Y-71467750D03*
X138777750Y-71467750D03*
X141317750Y-71467750D03*
%TD*%
D10*
%TO.C,D3*%
X153859000Y-87184000D03*
D11*
X153859000Y-79564000D03*
%TD*%
D10*
%TO.C,D1*%
X115759000Y-87184000D03*
D11*
X115759000Y-79564000D03*
%TD*%
D18*
%TO.C,R1*%
X97026500Y-44797750D03*
X97026500Y-60037750D03*
%TD*%
D10*
%TO.C,A2*%
X164812750Y-62895250D03*
D11*
X162272750Y-62895250D03*
X159732750Y-62895250D03*
X157192750Y-62895250D03*
X154652750Y-62895250D03*
X152112750Y-62895250D03*
X149572750Y-62895250D03*
X147032750Y-62895250D03*
X144492750Y-62895250D03*
X141952750Y-62895250D03*
X139412750Y-62895250D03*
X136872750Y-62895250D03*
X134332750Y-62895250D03*
X131792750Y-62895250D03*
X129252750Y-62895250D03*
X129252750Y-47655250D03*
X131792750Y-47655250D03*
X134332750Y-47655250D03*
X136872750Y-47655250D03*
X139412750Y-47655250D03*
X141952750Y-47655250D03*
X144492750Y-47655250D03*
X147032750Y-47655250D03*
X149572750Y-47655250D03*
X152112750Y-47655250D03*
X154652750Y-47655250D03*
X157192750Y-47655250D03*
X159732750Y-47655250D03*
X162272750Y-47655250D03*
X164812750Y-47655250D03*
%TD*%
D18*
%TO.C,R2*%
X96550250Y-40511500D03*
X111790250Y-40511500D03*
%TD*%
M02*
