%TF.GenerationSoftware,KiCad,Pcbnew,9.0.2*%
%TF.CreationDate,2025-05-14T19:39:48+10:00*%
%TF.ProjectId,Calculator,43616c63-756c-4617-946f-722e6b696361,rev?*%
%TF.SameCoordinates,Original*%
%TF.FileFunction,Legend,Bot*%
%TF.FilePolarity,Positive*%
%FSLAX46Y46*%
G04 Gerber Fmt 4.6, Leading zero omitted, Abs format (unit mm)*
G04 Created by KiCad (PCBNEW 9.0.2) date 2025-05-14 19:39:48*
%MOMM*%
%LPD*%
G01*
G04 APERTURE LIST*
%ADD10C,0.100000*%
%ADD11C,0.150000*%
%ADD12C,0.120000*%
G04 APERTURE END LIST*
D10*
X120582734Y-151302669D02*
X120582734Y-151493145D01*
X120201782Y-151302669D02*
X120201782Y-151493145D01*
X119773210Y-151778859D02*
X119439877Y-151778859D01*
X119297020Y-152302669D02*
X119773210Y-152302669D01*
X119773210Y-152302669D02*
X119773210Y-151302669D01*
X119773210Y-151302669D02*
X119297020Y-151302669D01*
X118868448Y-152302669D02*
X118868448Y-151636002D01*
X118868448Y-151826478D02*
X118820829Y-151731240D01*
X118820829Y-151731240D02*
X118773210Y-151683621D01*
X118773210Y-151683621D02*
X118677972Y-151636002D01*
X118677972Y-151636002D02*
X118582734Y-151636002D01*
X118249400Y-152302669D02*
X118249400Y-151636002D01*
X118249400Y-151826478D02*
X118201781Y-151731240D01*
X118201781Y-151731240D02*
X118154162Y-151683621D01*
X118154162Y-151683621D02*
X118058924Y-151636002D01*
X118058924Y-151636002D02*
X117963686Y-151636002D01*
X117630352Y-152302669D02*
X117630352Y-151636002D01*
X117630352Y-151731240D02*
X117582733Y-151683621D01*
X117582733Y-151683621D02*
X117487495Y-151636002D01*
X117487495Y-151636002D02*
X117344638Y-151636002D01*
X117344638Y-151636002D02*
X117249400Y-151683621D01*
X117249400Y-151683621D02*
X117201781Y-151778859D01*
X117201781Y-151778859D02*
X117201781Y-152302669D01*
X117201781Y-151778859D02*
X117154162Y-151683621D01*
X117154162Y-151683621D02*
X117058924Y-151636002D01*
X117058924Y-151636002D02*
X116916067Y-151636002D01*
X116916067Y-151636002D02*
X116820828Y-151683621D01*
X116820828Y-151683621D02*
X116773209Y-151778859D01*
X116773209Y-151778859D02*
X116773209Y-152302669D01*
X115106543Y-152255050D02*
X115201781Y-152302669D01*
X115201781Y-152302669D02*
X115392257Y-152302669D01*
X115392257Y-152302669D02*
X115487495Y-152255050D01*
X115487495Y-152255050D02*
X115535114Y-152207430D01*
X115535114Y-152207430D02*
X115582733Y-152112192D01*
X115582733Y-152112192D02*
X115582733Y-151826478D01*
X115582733Y-151826478D02*
X115535114Y-151731240D01*
X115535114Y-151731240D02*
X115487495Y-151683621D01*
X115487495Y-151683621D02*
X115392257Y-151636002D01*
X115392257Y-151636002D02*
X115201781Y-151636002D01*
X115201781Y-151636002D02*
X115106543Y-151683621D01*
X114249400Y-152302669D02*
X114249400Y-151778859D01*
X114249400Y-151778859D02*
X114297019Y-151683621D01*
X114297019Y-151683621D02*
X114392257Y-151636002D01*
X114392257Y-151636002D02*
X114582733Y-151636002D01*
X114582733Y-151636002D02*
X114677971Y-151683621D01*
X114249400Y-152255050D02*
X114344638Y-152302669D01*
X114344638Y-152302669D02*
X114582733Y-152302669D01*
X114582733Y-152302669D02*
X114677971Y-152255050D01*
X114677971Y-152255050D02*
X114725590Y-152159811D01*
X114725590Y-152159811D02*
X114725590Y-152064573D01*
X114725590Y-152064573D02*
X114677971Y-151969335D01*
X114677971Y-151969335D02*
X114582733Y-151921716D01*
X114582733Y-151921716D02*
X114344638Y-151921716D01*
X114344638Y-151921716D02*
X114249400Y-151874097D01*
X113630352Y-152302669D02*
X113725590Y-152255050D01*
X113725590Y-152255050D02*
X113773209Y-152159811D01*
X113773209Y-152159811D02*
X113773209Y-151302669D01*
X112820828Y-152255050D02*
X112916066Y-152302669D01*
X112916066Y-152302669D02*
X113106542Y-152302669D01*
X113106542Y-152302669D02*
X113201780Y-152255050D01*
X113201780Y-152255050D02*
X113249399Y-152207430D01*
X113249399Y-152207430D02*
X113297018Y-152112192D01*
X113297018Y-152112192D02*
X113297018Y-151826478D01*
X113297018Y-151826478D02*
X113249399Y-151731240D01*
X113249399Y-151731240D02*
X113201780Y-151683621D01*
X113201780Y-151683621D02*
X113106542Y-151636002D01*
X113106542Y-151636002D02*
X112916066Y-151636002D01*
X112916066Y-151636002D02*
X112820828Y-151683621D01*
X111630351Y-152302669D02*
X111630351Y-151636002D01*
X111630351Y-151302669D02*
X111677970Y-151350288D01*
X111677970Y-151350288D02*
X111630351Y-151397907D01*
X111630351Y-151397907D02*
X111582732Y-151350288D01*
X111582732Y-151350288D02*
X111630351Y-151302669D01*
X111630351Y-151302669D02*
X111630351Y-151397907D01*
X111201780Y-152255050D02*
X111106542Y-152302669D01*
X111106542Y-152302669D02*
X110916066Y-152302669D01*
X110916066Y-152302669D02*
X110820828Y-152255050D01*
X110820828Y-152255050D02*
X110773209Y-152159811D01*
X110773209Y-152159811D02*
X110773209Y-152112192D01*
X110773209Y-152112192D02*
X110820828Y-152016954D01*
X110820828Y-152016954D02*
X110916066Y-151969335D01*
X110916066Y-151969335D02*
X111058923Y-151969335D01*
X111058923Y-151969335D02*
X111154161Y-151921716D01*
X111154161Y-151921716D02*
X111201780Y-151826478D01*
X111201780Y-151826478D02*
X111201780Y-151778859D01*
X111201780Y-151778859D02*
X111154161Y-151683621D01*
X111154161Y-151683621D02*
X111058923Y-151636002D01*
X111058923Y-151636002D02*
X110916066Y-151636002D01*
X110916066Y-151636002D02*
X110820828Y-151683621D01*
X109630351Y-152255050D02*
X109535113Y-152302669D01*
X109535113Y-152302669D02*
X109344637Y-152302669D01*
X109344637Y-152302669D02*
X109249399Y-152255050D01*
X109249399Y-152255050D02*
X109201780Y-152159811D01*
X109201780Y-152159811D02*
X109201780Y-152112192D01*
X109201780Y-152112192D02*
X109249399Y-152016954D01*
X109249399Y-152016954D02*
X109344637Y-151969335D01*
X109344637Y-151969335D02*
X109487494Y-151969335D01*
X109487494Y-151969335D02*
X109582732Y-151921716D01*
X109582732Y-151921716D02*
X109630351Y-151826478D01*
X109630351Y-151826478D02*
X109630351Y-151778859D01*
X109630351Y-151778859D02*
X109582732Y-151683621D01*
X109582732Y-151683621D02*
X109487494Y-151636002D01*
X109487494Y-151636002D02*
X109344637Y-151636002D01*
X109344637Y-151636002D02*
X109249399Y-151683621D01*
X108773208Y-152302669D02*
X108773208Y-151302669D01*
X108344637Y-152302669D02*
X108344637Y-151778859D01*
X108344637Y-151778859D02*
X108392256Y-151683621D01*
X108392256Y-151683621D02*
X108487494Y-151636002D01*
X108487494Y-151636002D02*
X108630351Y-151636002D01*
X108630351Y-151636002D02*
X108725589Y-151683621D01*
X108725589Y-151683621D02*
X108773208Y-151731240D01*
X107725589Y-152302669D02*
X107820827Y-152255050D01*
X107820827Y-152255050D02*
X107868446Y-152207430D01*
X107868446Y-152207430D02*
X107916065Y-152112192D01*
X107916065Y-152112192D02*
X107916065Y-151826478D01*
X107916065Y-151826478D02*
X107868446Y-151731240D01*
X107868446Y-151731240D02*
X107820827Y-151683621D01*
X107820827Y-151683621D02*
X107725589Y-151636002D01*
X107725589Y-151636002D02*
X107582732Y-151636002D01*
X107582732Y-151636002D02*
X107487494Y-151683621D01*
X107487494Y-151683621D02*
X107439875Y-151731240D01*
X107439875Y-151731240D02*
X107392256Y-151826478D01*
X107392256Y-151826478D02*
X107392256Y-152112192D01*
X107392256Y-152112192D02*
X107439875Y-152207430D01*
X107439875Y-152207430D02*
X107487494Y-152255050D01*
X107487494Y-152255050D02*
X107582732Y-152302669D01*
X107582732Y-152302669D02*
X107725589Y-152302669D01*
X106963684Y-152302669D02*
X106963684Y-151636002D01*
X106963684Y-151826478D02*
X106916065Y-151731240D01*
X106916065Y-151731240D02*
X106868446Y-151683621D01*
X106868446Y-151683621D02*
X106773208Y-151636002D01*
X106773208Y-151636002D02*
X106677970Y-151636002D01*
X106487493Y-151636002D02*
X106106541Y-151636002D01*
X106344636Y-151302669D02*
X106344636Y-152159811D01*
X106344636Y-152159811D02*
X106297017Y-152255050D01*
X106297017Y-152255050D02*
X106201779Y-152302669D01*
X106201779Y-152302669D02*
X106106541Y-152302669D01*
X105154159Y-151636002D02*
X104773207Y-151636002D01*
X105011302Y-152302669D02*
X105011302Y-151445526D01*
X105011302Y-151445526D02*
X104963683Y-151350288D01*
X104963683Y-151350288D02*
X104868445Y-151302669D01*
X104868445Y-151302669D02*
X104773207Y-151302669D01*
X104297016Y-152302669D02*
X104392254Y-152255050D01*
X104392254Y-152255050D02*
X104439873Y-152207430D01*
X104439873Y-152207430D02*
X104487492Y-152112192D01*
X104487492Y-152112192D02*
X104487492Y-151826478D01*
X104487492Y-151826478D02*
X104439873Y-151731240D01*
X104439873Y-151731240D02*
X104392254Y-151683621D01*
X104392254Y-151683621D02*
X104297016Y-151636002D01*
X104297016Y-151636002D02*
X104154159Y-151636002D01*
X104154159Y-151636002D02*
X104058921Y-151683621D01*
X104058921Y-151683621D02*
X104011302Y-151731240D01*
X104011302Y-151731240D02*
X103963683Y-151826478D01*
X103963683Y-151826478D02*
X103963683Y-152112192D01*
X103963683Y-152112192D02*
X104011302Y-152207430D01*
X104011302Y-152207430D02*
X104058921Y-152255050D01*
X104058921Y-152255050D02*
X104154159Y-152302669D01*
X104154159Y-152302669D02*
X104297016Y-152302669D01*
X103535111Y-152302669D02*
X103535111Y-151636002D01*
X103535111Y-151826478D02*
X103487492Y-151731240D01*
X103487492Y-151731240D02*
X103439873Y-151683621D01*
X103439873Y-151683621D02*
X103344635Y-151636002D01*
X103344635Y-151636002D02*
X103249397Y-151636002D01*
X101725587Y-152255050D02*
X101820825Y-152302669D01*
X101820825Y-152302669D02*
X102011301Y-152302669D01*
X102011301Y-152302669D02*
X102106539Y-152255050D01*
X102106539Y-152255050D02*
X102154158Y-152207430D01*
X102154158Y-152207430D02*
X102201777Y-152112192D01*
X102201777Y-152112192D02*
X102201777Y-151826478D01*
X102201777Y-151826478D02*
X102154158Y-151731240D01*
X102154158Y-151731240D02*
X102106539Y-151683621D01*
X102106539Y-151683621D02*
X102011301Y-151636002D01*
X102011301Y-151636002D02*
X101820825Y-151636002D01*
X101820825Y-151636002D02*
X101725587Y-151683621D01*
X100868444Y-152302669D02*
X100868444Y-151778859D01*
X100868444Y-151778859D02*
X100916063Y-151683621D01*
X100916063Y-151683621D02*
X101011301Y-151636002D01*
X101011301Y-151636002D02*
X101201777Y-151636002D01*
X101201777Y-151636002D02*
X101297015Y-151683621D01*
X100868444Y-152255050D02*
X100963682Y-152302669D01*
X100963682Y-152302669D02*
X101201777Y-152302669D01*
X101201777Y-152302669D02*
X101297015Y-152255050D01*
X101297015Y-152255050D02*
X101344634Y-152159811D01*
X101344634Y-152159811D02*
X101344634Y-152064573D01*
X101344634Y-152064573D02*
X101297015Y-151969335D01*
X101297015Y-151969335D02*
X101201777Y-151921716D01*
X101201777Y-151921716D02*
X100963682Y-151921716D01*
X100963682Y-151921716D02*
X100868444Y-151874097D01*
X100249396Y-152302669D02*
X100344634Y-152255050D01*
X100344634Y-152255050D02*
X100392253Y-152159811D01*
X100392253Y-152159811D02*
X100392253Y-151302669D01*
X99439872Y-152255050D02*
X99535110Y-152302669D01*
X99535110Y-152302669D02*
X99725586Y-152302669D01*
X99725586Y-152302669D02*
X99820824Y-152255050D01*
X99820824Y-152255050D02*
X99868443Y-152207430D01*
X99868443Y-152207430D02*
X99916062Y-152112192D01*
X99916062Y-152112192D02*
X99916062Y-151826478D01*
X99916062Y-151826478D02*
X99868443Y-151731240D01*
X99868443Y-151731240D02*
X99820824Y-151683621D01*
X99820824Y-151683621D02*
X99725586Y-151636002D01*
X99725586Y-151636002D02*
X99535110Y-151636002D01*
X99535110Y-151636002D02*
X99439872Y-151683621D01*
X98582729Y-151636002D02*
X98582729Y-152302669D01*
X99011300Y-151636002D02*
X99011300Y-152159811D01*
X99011300Y-152159811D02*
X98963681Y-152255050D01*
X98963681Y-152255050D02*
X98868443Y-152302669D01*
X98868443Y-152302669D02*
X98725586Y-152302669D01*
X98725586Y-152302669D02*
X98630348Y-152255050D01*
X98630348Y-152255050D02*
X98582729Y-152207430D01*
X97963681Y-152302669D02*
X98058919Y-152255050D01*
X98058919Y-152255050D02*
X98106538Y-152159811D01*
X98106538Y-152159811D02*
X98106538Y-151302669D01*
X97154157Y-152302669D02*
X97154157Y-151778859D01*
X97154157Y-151778859D02*
X97201776Y-151683621D01*
X97201776Y-151683621D02*
X97297014Y-151636002D01*
X97297014Y-151636002D02*
X97487490Y-151636002D01*
X97487490Y-151636002D02*
X97582728Y-151683621D01*
X97154157Y-152255050D02*
X97249395Y-152302669D01*
X97249395Y-152302669D02*
X97487490Y-152302669D01*
X97487490Y-152302669D02*
X97582728Y-152255050D01*
X97582728Y-152255050D02*
X97630347Y-152159811D01*
X97630347Y-152159811D02*
X97630347Y-152064573D01*
X97630347Y-152064573D02*
X97582728Y-151969335D01*
X97582728Y-151969335D02*
X97487490Y-151921716D01*
X97487490Y-151921716D02*
X97249395Y-151921716D01*
X97249395Y-151921716D02*
X97154157Y-151874097D01*
X96820823Y-151636002D02*
X96439871Y-151636002D01*
X96677966Y-151302669D02*
X96677966Y-152159811D01*
X96677966Y-152159811D02*
X96630347Y-152255050D01*
X96630347Y-152255050D02*
X96535109Y-152302669D01*
X96535109Y-152302669D02*
X96439871Y-152302669D01*
X95963680Y-152302669D02*
X96058918Y-152255050D01*
X96058918Y-152255050D02*
X96106537Y-152207430D01*
X96106537Y-152207430D02*
X96154156Y-152112192D01*
X96154156Y-152112192D02*
X96154156Y-151826478D01*
X96154156Y-151826478D02*
X96106537Y-151731240D01*
X96106537Y-151731240D02*
X96058918Y-151683621D01*
X96058918Y-151683621D02*
X95963680Y-151636002D01*
X95963680Y-151636002D02*
X95820823Y-151636002D01*
X95820823Y-151636002D02*
X95725585Y-151683621D01*
X95725585Y-151683621D02*
X95677966Y-151731240D01*
X95677966Y-151731240D02*
X95630347Y-151826478D01*
X95630347Y-151826478D02*
X95630347Y-152112192D01*
X95630347Y-152112192D02*
X95677966Y-152207430D01*
X95677966Y-152207430D02*
X95725585Y-152255050D01*
X95725585Y-152255050D02*
X95820823Y-152302669D01*
X95820823Y-152302669D02*
X95963680Y-152302669D01*
X95201775Y-152302669D02*
X95201775Y-151636002D01*
X95201775Y-151826478D02*
X95154156Y-151731240D01*
X95154156Y-151731240D02*
X95106537Y-151683621D01*
X95106537Y-151683621D02*
X95011299Y-151636002D01*
X95011299Y-151636002D02*
X94916061Y-151636002D01*
X94630346Y-151302669D02*
X94630346Y-151493145D01*
X94249394Y-151302669D02*
X94249394Y-151493145D01*
X170541365Y-34782781D02*
X170541365Y-33782781D01*
X170541365Y-33782781D02*
X169969937Y-34782781D01*
X169969937Y-34782781D02*
X169969937Y-33782781D01*
X169065175Y-34116114D02*
X169065175Y-34782781D01*
X169493746Y-34116114D02*
X169493746Y-34639923D01*
X169493746Y-34639923D02*
X169446127Y-34735162D01*
X169446127Y-34735162D02*
X169350889Y-34782781D01*
X169350889Y-34782781D02*
X169208032Y-34782781D01*
X169208032Y-34782781D02*
X169112794Y-34735162D01*
X169112794Y-34735162D02*
X169065175Y-34687542D01*
X168588984Y-34782781D02*
X168588984Y-34116114D01*
X168588984Y-34211352D02*
X168541365Y-34163733D01*
X168541365Y-34163733D02*
X168446127Y-34116114D01*
X168446127Y-34116114D02*
X168303270Y-34116114D01*
X168303270Y-34116114D02*
X168208032Y-34163733D01*
X168208032Y-34163733D02*
X168160413Y-34258971D01*
X168160413Y-34258971D02*
X168160413Y-34782781D01*
X168160413Y-34258971D02*
X168112794Y-34163733D01*
X168112794Y-34163733D02*
X168017556Y-34116114D01*
X168017556Y-34116114D02*
X167874699Y-34116114D01*
X167874699Y-34116114D02*
X167779460Y-34163733D01*
X167779460Y-34163733D02*
X167731841Y-34258971D01*
X167731841Y-34258971D02*
X167731841Y-34782781D01*
X167255651Y-34782781D02*
X167255651Y-33782781D01*
X167255651Y-34163733D02*
X167160413Y-34116114D01*
X167160413Y-34116114D02*
X166969937Y-34116114D01*
X166969937Y-34116114D02*
X166874699Y-34163733D01*
X166874699Y-34163733D02*
X166827080Y-34211352D01*
X166827080Y-34211352D02*
X166779461Y-34306590D01*
X166779461Y-34306590D02*
X166779461Y-34592304D01*
X166779461Y-34592304D02*
X166827080Y-34687542D01*
X166827080Y-34687542D02*
X166874699Y-34735162D01*
X166874699Y-34735162D02*
X166969937Y-34782781D01*
X166969937Y-34782781D02*
X167160413Y-34782781D01*
X167160413Y-34782781D02*
X167255651Y-34735162D01*
X165969937Y-34735162D02*
X166065175Y-34782781D01*
X166065175Y-34782781D02*
X166255651Y-34782781D01*
X166255651Y-34782781D02*
X166350889Y-34735162D01*
X166350889Y-34735162D02*
X166398508Y-34639923D01*
X166398508Y-34639923D02*
X166398508Y-34258971D01*
X166398508Y-34258971D02*
X166350889Y-34163733D01*
X166350889Y-34163733D02*
X166255651Y-34116114D01*
X166255651Y-34116114D02*
X166065175Y-34116114D01*
X166065175Y-34116114D02*
X165969937Y-34163733D01*
X165969937Y-34163733D02*
X165922318Y-34258971D01*
X165922318Y-34258971D02*
X165922318Y-34354209D01*
X165922318Y-34354209D02*
X166398508Y-34449447D01*
X165493746Y-34782781D02*
X165493746Y-34116114D01*
X165493746Y-34306590D02*
X165446127Y-34211352D01*
X165446127Y-34211352D02*
X165398508Y-34163733D01*
X165398508Y-34163733D02*
X165303270Y-34116114D01*
X165303270Y-34116114D02*
X165208032Y-34116114D01*
X164874698Y-34116114D02*
X164874698Y-35116114D01*
X164874698Y-34163733D02*
X164779460Y-34116114D01*
X164779460Y-34116114D02*
X164588984Y-34116114D01*
X164588984Y-34116114D02*
X164493746Y-34163733D01*
X164493746Y-34163733D02*
X164446127Y-34211352D01*
X164446127Y-34211352D02*
X164398508Y-34306590D01*
X164398508Y-34306590D02*
X164398508Y-34592304D01*
X164398508Y-34592304D02*
X164446127Y-34687542D01*
X164446127Y-34687542D02*
X164493746Y-34735162D01*
X164493746Y-34735162D02*
X164588984Y-34782781D01*
X164588984Y-34782781D02*
X164779460Y-34782781D01*
X164779460Y-34782781D02*
X164874698Y-34735162D01*
X163541365Y-34782781D02*
X163541365Y-34258971D01*
X163541365Y-34258971D02*
X163588984Y-34163733D01*
X163588984Y-34163733D02*
X163684222Y-34116114D01*
X163684222Y-34116114D02*
X163874698Y-34116114D01*
X163874698Y-34116114D02*
X163969936Y-34163733D01*
X163541365Y-34735162D02*
X163636603Y-34782781D01*
X163636603Y-34782781D02*
X163874698Y-34782781D01*
X163874698Y-34782781D02*
X163969936Y-34735162D01*
X163969936Y-34735162D02*
X164017555Y-34639923D01*
X164017555Y-34639923D02*
X164017555Y-34544685D01*
X164017555Y-34544685D02*
X163969936Y-34449447D01*
X163969936Y-34449447D02*
X163874698Y-34401828D01*
X163874698Y-34401828D02*
X163636603Y-34401828D01*
X163636603Y-34401828D02*
X163541365Y-34354209D01*
X162636603Y-34782781D02*
X162636603Y-33782781D01*
X162636603Y-34735162D02*
X162731841Y-34782781D01*
X162731841Y-34782781D02*
X162922317Y-34782781D01*
X162922317Y-34782781D02*
X163017555Y-34735162D01*
X163017555Y-34735162D02*
X163065174Y-34687542D01*
X163065174Y-34687542D02*
X163112793Y-34592304D01*
X163112793Y-34592304D02*
X163112793Y-34306590D01*
X163112793Y-34306590D02*
X163065174Y-34211352D01*
X163065174Y-34211352D02*
X163017555Y-34163733D01*
X163017555Y-34163733D02*
X162922317Y-34116114D01*
X162922317Y-34116114D02*
X162731841Y-34116114D01*
X162731841Y-34116114D02*
X162636603Y-34163733D01*
X160827079Y-34687542D02*
X160874698Y-34735162D01*
X160874698Y-34735162D02*
X161017555Y-34782781D01*
X161017555Y-34782781D02*
X161112793Y-34782781D01*
X161112793Y-34782781D02*
X161255650Y-34735162D01*
X161255650Y-34735162D02*
X161350888Y-34639923D01*
X161350888Y-34639923D02*
X161398507Y-34544685D01*
X161398507Y-34544685D02*
X161446126Y-34354209D01*
X161446126Y-34354209D02*
X161446126Y-34211352D01*
X161446126Y-34211352D02*
X161398507Y-34020876D01*
X161398507Y-34020876D02*
X161350888Y-33925638D01*
X161350888Y-33925638D02*
X161255650Y-33830400D01*
X161255650Y-33830400D02*
X161112793Y-33782781D01*
X161112793Y-33782781D02*
X161017555Y-33782781D01*
X161017555Y-33782781D02*
X160874698Y-33830400D01*
X160874698Y-33830400D02*
X160827079Y-33878019D01*
X159969936Y-34782781D02*
X159969936Y-34258971D01*
X159969936Y-34258971D02*
X160017555Y-34163733D01*
X160017555Y-34163733D02*
X160112793Y-34116114D01*
X160112793Y-34116114D02*
X160303269Y-34116114D01*
X160303269Y-34116114D02*
X160398507Y-34163733D01*
X159969936Y-34735162D02*
X160065174Y-34782781D01*
X160065174Y-34782781D02*
X160303269Y-34782781D01*
X160303269Y-34782781D02*
X160398507Y-34735162D01*
X160398507Y-34735162D02*
X160446126Y-34639923D01*
X160446126Y-34639923D02*
X160446126Y-34544685D01*
X160446126Y-34544685D02*
X160398507Y-34449447D01*
X160398507Y-34449447D02*
X160303269Y-34401828D01*
X160303269Y-34401828D02*
X160065174Y-34401828D01*
X160065174Y-34401828D02*
X159969936Y-34354209D01*
X159350888Y-34782781D02*
X159446126Y-34735162D01*
X159446126Y-34735162D02*
X159493745Y-34639923D01*
X159493745Y-34639923D02*
X159493745Y-33782781D01*
X158541364Y-34735162D02*
X158636602Y-34782781D01*
X158636602Y-34782781D02*
X158827078Y-34782781D01*
X158827078Y-34782781D02*
X158922316Y-34735162D01*
X158922316Y-34735162D02*
X158969935Y-34687542D01*
X158969935Y-34687542D02*
X159017554Y-34592304D01*
X159017554Y-34592304D02*
X159017554Y-34306590D01*
X159017554Y-34306590D02*
X158969935Y-34211352D01*
X158969935Y-34211352D02*
X158922316Y-34163733D01*
X158922316Y-34163733D02*
X158827078Y-34116114D01*
X158827078Y-34116114D02*
X158636602Y-34116114D01*
X158636602Y-34116114D02*
X158541364Y-34163733D01*
X157684221Y-34116114D02*
X157684221Y-34782781D01*
X158112792Y-34116114D02*
X158112792Y-34639923D01*
X158112792Y-34639923D02*
X158065173Y-34735162D01*
X158065173Y-34735162D02*
X157969935Y-34782781D01*
X157969935Y-34782781D02*
X157827078Y-34782781D01*
X157827078Y-34782781D02*
X157731840Y-34735162D01*
X157731840Y-34735162D02*
X157684221Y-34687542D01*
X157065173Y-34782781D02*
X157160411Y-34735162D01*
X157160411Y-34735162D02*
X157208030Y-34639923D01*
X157208030Y-34639923D02*
X157208030Y-33782781D01*
X156255649Y-34782781D02*
X156255649Y-34258971D01*
X156255649Y-34258971D02*
X156303268Y-34163733D01*
X156303268Y-34163733D02*
X156398506Y-34116114D01*
X156398506Y-34116114D02*
X156588982Y-34116114D01*
X156588982Y-34116114D02*
X156684220Y-34163733D01*
X156255649Y-34735162D02*
X156350887Y-34782781D01*
X156350887Y-34782781D02*
X156588982Y-34782781D01*
X156588982Y-34782781D02*
X156684220Y-34735162D01*
X156684220Y-34735162D02*
X156731839Y-34639923D01*
X156731839Y-34639923D02*
X156731839Y-34544685D01*
X156731839Y-34544685D02*
X156684220Y-34449447D01*
X156684220Y-34449447D02*
X156588982Y-34401828D01*
X156588982Y-34401828D02*
X156350887Y-34401828D01*
X156350887Y-34401828D02*
X156255649Y-34354209D01*
X155922315Y-34116114D02*
X155541363Y-34116114D01*
X155779458Y-33782781D02*
X155779458Y-34639923D01*
X155779458Y-34639923D02*
X155731839Y-34735162D01*
X155731839Y-34735162D02*
X155636601Y-34782781D01*
X155636601Y-34782781D02*
X155541363Y-34782781D01*
X155065172Y-34782781D02*
X155160410Y-34735162D01*
X155160410Y-34735162D02*
X155208029Y-34687542D01*
X155208029Y-34687542D02*
X155255648Y-34592304D01*
X155255648Y-34592304D02*
X155255648Y-34306590D01*
X155255648Y-34306590D02*
X155208029Y-34211352D01*
X155208029Y-34211352D02*
X155160410Y-34163733D01*
X155160410Y-34163733D02*
X155065172Y-34116114D01*
X155065172Y-34116114D02*
X154922315Y-34116114D01*
X154922315Y-34116114D02*
X154827077Y-34163733D01*
X154827077Y-34163733D02*
X154779458Y-34211352D01*
X154779458Y-34211352D02*
X154731839Y-34306590D01*
X154731839Y-34306590D02*
X154731839Y-34592304D01*
X154731839Y-34592304D02*
X154779458Y-34687542D01*
X154779458Y-34687542D02*
X154827077Y-34735162D01*
X154827077Y-34735162D02*
X154922315Y-34782781D01*
X154922315Y-34782781D02*
X155065172Y-34782781D01*
X154303267Y-34782781D02*
X154303267Y-34116114D01*
X154303267Y-34306590D02*
X154255648Y-34211352D01*
X154255648Y-34211352D02*
X154208029Y-34163733D01*
X154208029Y-34163733D02*
X154112791Y-34116114D01*
X154112791Y-34116114D02*
X154017553Y-34116114D01*
X170541365Y-36392725D02*
X170541365Y-35392725D01*
X170541365Y-35392725D02*
X170303270Y-35392725D01*
X170303270Y-35392725D02*
X170160413Y-35440344D01*
X170160413Y-35440344D02*
X170065175Y-35535582D01*
X170065175Y-35535582D02*
X170017556Y-35630820D01*
X170017556Y-35630820D02*
X169969937Y-35821296D01*
X169969937Y-35821296D02*
X169969937Y-35964153D01*
X169969937Y-35964153D02*
X170017556Y-36154629D01*
X170017556Y-36154629D02*
X170065175Y-36249867D01*
X170065175Y-36249867D02*
X170160413Y-36345106D01*
X170160413Y-36345106D02*
X170303270Y-36392725D01*
X170303270Y-36392725D02*
X170541365Y-36392725D01*
X169160413Y-36345106D02*
X169255651Y-36392725D01*
X169255651Y-36392725D02*
X169446127Y-36392725D01*
X169446127Y-36392725D02*
X169541365Y-36345106D01*
X169541365Y-36345106D02*
X169588984Y-36249867D01*
X169588984Y-36249867D02*
X169588984Y-35868915D01*
X169588984Y-35868915D02*
X169541365Y-35773677D01*
X169541365Y-35773677D02*
X169446127Y-35726058D01*
X169446127Y-35726058D02*
X169255651Y-35726058D01*
X169255651Y-35726058D02*
X169160413Y-35773677D01*
X169160413Y-35773677D02*
X169112794Y-35868915D01*
X169112794Y-35868915D02*
X169112794Y-35964153D01*
X169112794Y-35964153D02*
X169588984Y-36059391D01*
X168731841Y-36345106D02*
X168636603Y-36392725D01*
X168636603Y-36392725D02*
X168446127Y-36392725D01*
X168446127Y-36392725D02*
X168350889Y-36345106D01*
X168350889Y-36345106D02*
X168303270Y-36249867D01*
X168303270Y-36249867D02*
X168303270Y-36202248D01*
X168303270Y-36202248D02*
X168350889Y-36107010D01*
X168350889Y-36107010D02*
X168446127Y-36059391D01*
X168446127Y-36059391D02*
X168588984Y-36059391D01*
X168588984Y-36059391D02*
X168684222Y-36011772D01*
X168684222Y-36011772D02*
X168731841Y-35916534D01*
X168731841Y-35916534D02*
X168731841Y-35868915D01*
X168731841Y-35868915D02*
X168684222Y-35773677D01*
X168684222Y-35773677D02*
X168588984Y-35726058D01*
X168588984Y-35726058D02*
X168446127Y-35726058D01*
X168446127Y-35726058D02*
X168350889Y-35773677D01*
X167874698Y-36392725D02*
X167874698Y-35726058D01*
X167874698Y-35392725D02*
X167922317Y-35440344D01*
X167922317Y-35440344D02*
X167874698Y-35487963D01*
X167874698Y-35487963D02*
X167827079Y-35440344D01*
X167827079Y-35440344D02*
X167874698Y-35392725D01*
X167874698Y-35392725D02*
X167874698Y-35487963D01*
X166969937Y-35726058D02*
X166969937Y-36535582D01*
X166969937Y-36535582D02*
X167017556Y-36630820D01*
X167017556Y-36630820D02*
X167065175Y-36678439D01*
X167065175Y-36678439D02*
X167160413Y-36726058D01*
X167160413Y-36726058D02*
X167303270Y-36726058D01*
X167303270Y-36726058D02*
X167398508Y-36678439D01*
X166969937Y-36345106D02*
X167065175Y-36392725D01*
X167065175Y-36392725D02*
X167255651Y-36392725D01*
X167255651Y-36392725D02*
X167350889Y-36345106D01*
X167350889Y-36345106D02*
X167398508Y-36297486D01*
X167398508Y-36297486D02*
X167446127Y-36202248D01*
X167446127Y-36202248D02*
X167446127Y-35916534D01*
X167446127Y-35916534D02*
X167398508Y-35821296D01*
X167398508Y-35821296D02*
X167350889Y-35773677D01*
X167350889Y-35773677D02*
X167255651Y-35726058D01*
X167255651Y-35726058D02*
X167065175Y-35726058D01*
X167065175Y-35726058D02*
X166969937Y-35773677D01*
X166493746Y-35726058D02*
X166493746Y-36392725D01*
X166493746Y-35821296D02*
X166446127Y-35773677D01*
X166446127Y-35773677D02*
X166350889Y-35726058D01*
X166350889Y-35726058D02*
X166208032Y-35726058D01*
X166208032Y-35726058D02*
X166112794Y-35773677D01*
X166112794Y-35773677D02*
X166065175Y-35868915D01*
X166065175Y-35868915D02*
X166065175Y-36392725D01*
X165208032Y-36345106D02*
X165303270Y-36392725D01*
X165303270Y-36392725D02*
X165493746Y-36392725D01*
X165493746Y-36392725D02*
X165588984Y-36345106D01*
X165588984Y-36345106D02*
X165636603Y-36249867D01*
X165636603Y-36249867D02*
X165636603Y-35868915D01*
X165636603Y-35868915D02*
X165588984Y-35773677D01*
X165588984Y-35773677D02*
X165493746Y-35726058D01*
X165493746Y-35726058D02*
X165303270Y-35726058D01*
X165303270Y-35726058D02*
X165208032Y-35773677D01*
X165208032Y-35773677D02*
X165160413Y-35868915D01*
X165160413Y-35868915D02*
X165160413Y-35964153D01*
X165160413Y-35964153D02*
X165636603Y-36059391D01*
X164303270Y-36392725D02*
X164303270Y-35392725D01*
X164303270Y-36345106D02*
X164398508Y-36392725D01*
X164398508Y-36392725D02*
X164588984Y-36392725D01*
X164588984Y-36392725D02*
X164684222Y-36345106D01*
X164684222Y-36345106D02*
X164731841Y-36297486D01*
X164731841Y-36297486D02*
X164779460Y-36202248D01*
X164779460Y-36202248D02*
X164779460Y-35916534D01*
X164779460Y-35916534D02*
X164731841Y-35821296D01*
X164731841Y-35821296D02*
X164684222Y-35773677D01*
X164684222Y-35773677D02*
X164588984Y-35726058D01*
X164588984Y-35726058D02*
X164398508Y-35726058D01*
X164398508Y-35726058D02*
X164303270Y-35773677D01*
X163065174Y-36392725D02*
X163065174Y-35392725D01*
X163065174Y-35773677D02*
X162969936Y-35726058D01*
X162969936Y-35726058D02*
X162779460Y-35726058D01*
X162779460Y-35726058D02*
X162684222Y-35773677D01*
X162684222Y-35773677D02*
X162636603Y-35821296D01*
X162636603Y-35821296D02*
X162588984Y-35916534D01*
X162588984Y-35916534D02*
X162588984Y-36202248D01*
X162588984Y-36202248D02*
X162636603Y-36297486D01*
X162636603Y-36297486D02*
X162684222Y-36345106D01*
X162684222Y-36345106D02*
X162779460Y-36392725D01*
X162779460Y-36392725D02*
X162969936Y-36392725D01*
X162969936Y-36392725D02*
X163065174Y-36345106D01*
X162255650Y-35726058D02*
X162017555Y-36392725D01*
X161779460Y-35726058D02*
X162017555Y-36392725D01*
X162017555Y-36392725D02*
X162112793Y-36630820D01*
X162112793Y-36630820D02*
X162160412Y-36678439D01*
X162160412Y-36678439D02*
X162255650Y-36726058D01*
X161398507Y-36297486D02*
X161350888Y-36345106D01*
X161350888Y-36345106D02*
X161398507Y-36392725D01*
X161398507Y-36392725D02*
X161446126Y-36345106D01*
X161446126Y-36345106D02*
X161398507Y-36297486D01*
X161398507Y-36297486D02*
X161398507Y-36392725D01*
X161398507Y-35773677D02*
X161350888Y-35821296D01*
X161350888Y-35821296D02*
X161398507Y-35868915D01*
X161398507Y-35868915D02*
X161446126Y-35821296D01*
X161446126Y-35821296D02*
X161398507Y-35773677D01*
X161398507Y-35773677D02*
X161398507Y-35868915D01*
X160160412Y-35726058D02*
X160160412Y-36583201D01*
X160160412Y-36583201D02*
X160208031Y-36678439D01*
X160208031Y-36678439D02*
X160303269Y-36726058D01*
X160303269Y-36726058D02*
X160350888Y-36726058D01*
X160160412Y-35392725D02*
X160208031Y-35440344D01*
X160208031Y-35440344D02*
X160160412Y-35487963D01*
X160160412Y-35487963D02*
X160112793Y-35440344D01*
X160112793Y-35440344D02*
X160160412Y-35392725D01*
X160160412Y-35392725D02*
X160160412Y-35487963D01*
X159684222Y-36392725D02*
X159684222Y-35726058D01*
X159684222Y-35392725D02*
X159731841Y-35440344D01*
X159731841Y-35440344D02*
X159684222Y-35487963D01*
X159684222Y-35487963D02*
X159636603Y-35440344D01*
X159636603Y-35440344D02*
X159684222Y-35392725D01*
X159684222Y-35392725D02*
X159684222Y-35487963D01*
X159208032Y-36392725D02*
X159208032Y-35726058D01*
X159208032Y-35821296D02*
X159160413Y-35773677D01*
X159160413Y-35773677D02*
X159065175Y-35726058D01*
X159065175Y-35726058D02*
X158922318Y-35726058D01*
X158922318Y-35726058D02*
X158827080Y-35773677D01*
X158827080Y-35773677D02*
X158779461Y-35868915D01*
X158779461Y-35868915D02*
X158779461Y-36392725D01*
X158779461Y-35868915D02*
X158731842Y-35773677D01*
X158731842Y-35773677D02*
X158636604Y-35726058D01*
X158636604Y-35726058D02*
X158493747Y-35726058D01*
X158493747Y-35726058D02*
X158398508Y-35773677D01*
X158398508Y-35773677D02*
X158350889Y-35868915D01*
X158350889Y-35868915D02*
X158350889Y-36392725D01*
X157969937Y-35726058D02*
X157731842Y-36392725D01*
X157493747Y-35726058D02*
X157731842Y-36392725D01*
X157731842Y-36392725D02*
X157827080Y-36630820D01*
X157827080Y-36630820D02*
X157874699Y-36678439D01*
X157874699Y-36678439D02*
X157969937Y-36726058D01*
X156684223Y-36392725D02*
X156684223Y-35868915D01*
X156684223Y-35868915D02*
X156731842Y-35773677D01*
X156731842Y-35773677D02*
X156827080Y-35726058D01*
X156827080Y-35726058D02*
X157017556Y-35726058D01*
X157017556Y-35726058D02*
X157112794Y-35773677D01*
X156684223Y-36345106D02*
X156779461Y-36392725D01*
X156779461Y-36392725D02*
X157017556Y-36392725D01*
X157017556Y-36392725D02*
X157112794Y-36345106D01*
X157112794Y-36345106D02*
X157160413Y-36249867D01*
X157160413Y-36249867D02*
X157160413Y-36154629D01*
X157160413Y-36154629D02*
X157112794Y-36059391D01*
X157112794Y-36059391D02*
X157017556Y-36011772D01*
X157017556Y-36011772D02*
X156779461Y-36011772D01*
X156779461Y-36011772D02*
X156684223Y-35964153D01*
X170588984Y-37097907D02*
X170541365Y-37050288D01*
X170541365Y-37050288D02*
X170446127Y-37002669D01*
X170446127Y-37002669D02*
X170208032Y-37002669D01*
X170208032Y-37002669D02*
X170112794Y-37050288D01*
X170112794Y-37050288D02*
X170065175Y-37097907D01*
X170065175Y-37097907D02*
X170017556Y-37193145D01*
X170017556Y-37193145D02*
X170017556Y-37288383D01*
X170017556Y-37288383D02*
X170065175Y-37431240D01*
X170065175Y-37431240D02*
X170636603Y-38002669D01*
X170636603Y-38002669D02*
X170017556Y-38002669D01*
X169398508Y-37002669D02*
X169303270Y-37002669D01*
X169303270Y-37002669D02*
X169208032Y-37050288D01*
X169208032Y-37050288D02*
X169160413Y-37097907D01*
X169160413Y-37097907D02*
X169112794Y-37193145D01*
X169112794Y-37193145D02*
X169065175Y-37383621D01*
X169065175Y-37383621D02*
X169065175Y-37621716D01*
X169065175Y-37621716D02*
X169112794Y-37812192D01*
X169112794Y-37812192D02*
X169160413Y-37907430D01*
X169160413Y-37907430D02*
X169208032Y-37955050D01*
X169208032Y-37955050D02*
X169303270Y-38002669D01*
X169303270Y-38002669D02*
X169398508Y-38002669D01*
X169398508Y-38002669D02*
X169493746Y-37955050D01*
X169493746Y-37955050D02*
X169541365Y-37907430D01*
X169541365Y-37907430D02*
X169588984Y-37812192D01*
X169588984Y-37812192D02*
X169636603Y-37621716D01*
X169636603Y-37621716D02*
X169636603Y-37383621D01*
X169636603Y-37383621D02*
X169588984Y-37193145D01*
X169588984Y-37193145D02*
X169541365Y-37097907D01*
X169541365Y-37097907D02*
X169493746Y-37050288D01*
X169493746Y-37050288D02*
X169398508Y-37002669D01*
X168684222Y-37097907D02*
X168636603Y-37050288D01*
X168636603Y-37050288D02*
X168541365Y-37002669D01*
X168541365Y-37002669D02*
X168303270Y-37002669D01*
X168303270Y-37002669D02*
X168208032Y-37050288D01*
X168208032Y-37050288D02*
X168160413Y-37097907D01*
X168160413Y-37097907D02*
X168112794Y-37193145D01*
X168112794Y-37193145D02*
X168112794Y-37288383D01*
X168112794Y-37288383D02*
X168160413Y-37431240D01*
X168160413Y-37431240D02*
X168731841Y-38002669D01*
X168731841Y-38002669D02*
X168112794Y-38002669D01*
X167208032Y-37002669D02*
X167684222Y-37002669D01*
X167684222Y-37002669D02*
X167731841Y-37478859D01*
X167731841Y-37478859D02*
X167684222Y-37431240D01*
X167684222Y-37431240D02*
X167588984Y-37383621D01*
X167588984Y-37383621D02*
X167350889Y-37383621D01*
X167350889Y-37383621D02*
X167255651Y-37431240D01*
X167255651Y-37431240D02*
X167208032Y-37478859D01*
X167208032Y-37478859D02*
X167160413Y-37574097D01*
X167160413Y-37574097D02*
X167160413Y-37812192D01*
X167160413Y-37812192D02*
X167208032Y-37907430D01*
X167208032Y-37907430D02*
X167255651Y-37955050D01*
X167255651Y-37955050D02*
X167350889Y-38002669D01*
X167350889Y-38002669D02*
X167588984Y-38002669D01*
X167588984Y-38002669D02*
X167684222Y-37955050D01*
X167684222Y-37955050D02*
X167731841Y-37907430D01*
D11*
X95111319Y-52251083D02*
X94635128Y-51917750D01*
X95111319Y-51679655D02*
X94111319Y-51679655D01*
X94111319Y-51679655D02*
X94111319Y-52060607D01*
X94111319Y-52060607D02*
X94158938Y-52155845D01*
X94158938Y-52155845D02*
X94206557Y-52203464D01*
X94206557Y-52203464D02*
X94301795Y-52251083D01*
X94301795Y-52251083D02*
X94444652Y-52251083D01*
X94444652Y-52251083D02*
X94539890Y-52203464D01*
X94539890Y-52203464D02*
X94587509Y-52155845D01*
X94587509Y-52155845D02*
X94635128Y-52060607D01*
X94635128Y-52060607D02*
X94635128Y-51679655D01*
X95111319Y-53203464D02*
X95111319Y-52632036D01*
X95111319Y-52917750D02*
X94111319Y-52917750D01*
X94111319Y-52917750D02*
X94254176Y-52822512D01*
X94254176Y-52822512D02*
X94349414Y-52727274D01*
X94349414Y-52727274D02*
X94397033Y-52632036D01*
X170061854Y-54560964D02*
X170061854Y-55037154D01*
X170347569Y-54465726D02*
X169347569Y-54799059D01*
X169347569Y-54799059D02*
X170347569Y-55132392D01*
X169442807Y-55418107D02*
X169395188Y-55465726D01*
X169395188Y-55465726D02*
X169347569Y-55560964D01*
X169347569Y-55560964D02*
X169347569Y-55799059D01*
X169347569Y-55799059D02*
X169395188Y-55894297D01*
X169395188Y-55894297D02*
X169442807Y-55941916D01*
X169442807Y-55941916D02*
X169538045Y-55989535D01*
X169538045Y-55989535D02*
X169633283Y-55989535D01*
X169633283Y-55989535D02*
X169776140Y-55941916D01*
X169776140Y-55941916D02*
X170347569Y-55370488D01*
X170347569Y-55370488D02*
X170347569Y-55989535D01*
X129797930Y-56537154D02*
X128988407Y-56537154D01*
X128988407Y-56537154D02*
X128893169Y-56489535D01*
X128893169Y-56489535D02*
X128845550Y-56441916D01*
X128845550Y-56441916D02*
X128797930Y-56346678D01*
X128797930Y-56346678D02*
X128797930Y-56156202D01*
X128797930Y-56156202D02*
X128845550Y-56060964D01*
X128845550Y-56060964D02*
X128893169Y-56013345D01*
X128893169Y-56013345D02*
X128988407Y-55965726D01*
X128988407Y-55965726D02*
X129797930Y-55965726D01*
X128845550Y-55537154D02*
X128797930Y-55394297D01*
X128797930Y-55394297D02*
X128797930Y-55156202D01*
X128797930Y-55156202D02*
X128845550Y-55060964D01*
X128845550Y-55060964D02*
X128893169Y-55013345D01*
X128893169Y-55013345D02*
X128988407Y-54965726D01*
X128988407Y-54965726D02*
X129083645Y-54965726D01*
X129083645Y-54965726D02*
X129178883Y-55013345D01*
X129178883Y-55013345D02*
X129226502Y-55060964D01*
X129226502Y-55060964D02*
X129274121Y-55156202D01*
X129274121Y-55156202D02*
X129321740Y-55346678D01*
X129321740Y-55346678D02*
X129369359Y-55441916D01*
X129369359Y-55441916D02*
X129416978Y-55489535D01*
X129416978Y-55489535D02*
X129512216Y-55537154D01*
X129512216Y-55537154D02*
X129607454Y-55537154D01*
X129607454Y-55537154D02*
X129702692Y-55489535D01*
X129702692Y-55489535D02*
X129750311Y-55441916D01*
X129750311Y-55441916D02*
X129797930Y-55346678D01*
X129797930Y-55346678D02*
X129797930Y-55108583D01*
X129797930Y-55108583D02*
X129750311Y-54965726D01*
X129321740Y-54203821D02*
X129274121Y-54060964D01*
X129274121Y-54060964D02*
X129226502Y-54013345D01*
X129226502Y-54013345D02*
X129131264Y-53965726D01*
X129131264Y-53965726D02*
X128988407Y-53965726D01*
X128988407Y-53965726D02*
X128893169Y-54013345D01*
X128893169Y-54013345D02*
X128845550Y-54060964D01*
X128845550Y-54060964D02*
X128797930Y-54156202D01*
X128797930Y-54156202D02*
X128797930Y-54537154D01*
X128797930Y-54537154D02*
X129797930Y-54537154D01*
X129797930Y-54537154D02*
X129797930Y-54203821D01*
X129797930Y-54203821D02*
X129750311Y-54108583D01*
X129750311Y-54108583D02*
X129702692Y-54060964D01*
X129702692Y-54060964D02*
X129607454Y-54013345D01*
X129607454Y-54013345D02*
X129512216Y-54013345D01*
X129512216Y-54013345D02*
X129416978Y-54060964D01*
X129416978Y-54060964D02*
X129369359Y-54108583D01*
X129369359Y-54108583D02*
X129321740Y-54203821D01*
X129321740Y-54203821D02*
X129321740Y-54537154D01*
X104336916Y-43336319D02*
X104670249Y-42860128D01*
X104908344Y-43336319D02*
X104908344Y-42336319D01*
X104908344Y-42336319D02*
X104527392Y-42336319D01*
X104527392Y-42336319D02*
X104432154Y-42383938D01*
X104432154Y-42383938D02*
X104384535Y-42431557D01*
X104384535Y-42431557D02*
X104336916Y-42526795D01*
X104336916Y-42526795D02*
X104336916Y-42669652D01*
X104336916Y-42669652D02*
X104384535Y-42764890D01*
X104384535Y-42764890D02*
X104432154Y-42812509D01*
X104432154Y-42812509D02*
X104527392Y-42860128D01*
X104527392Y-42860128D02*
X104908344Y-42860128D01*
X103955963Y-42431557D02*
X103908344Y-42383938D01*
X103908344Y-42383938D02*
X103813106Y-42336319D01*
X103813106Y-42336319D02*
X103575011Y-42336319D01*
X103575011Y-42336319D02*
X103479773Y-42383938D01*
X103479773Y-42383938D02*
X103432154Y-42431557D01*
X103432154Y-42431557D02*
X103384535Y-42526795D01*
X103384535Y-42526795D02*
X103384535Y-42622033D01*
X103384535Y-42622033D02*
X103432154Y-42764890D01*
X103432154Y-42764890D02*
X104003582Y-43336319D01*
X104003582Y-43336319D02*
X103384535Y-43336319D01*
D10*
%TO.C,D1*%
X115359000Y-83124000D02*
X115759000Y-83724000D01*
X115759000Y-83124000D02*
X115759000Y-82624000D01*
X115759000Y-83724000D02*
X116159000Y-83124000D01*
X115759000Y-84124000D02*
X115759000Y-83724000D01*
X116159000Y-83124000D02*
X115359000Y-83124000D01*
X116309000Y-83724000D02*
X115209000Y-83724000D01*
D12*
%TO.C,R1*%
X97026500Y-45837750D02*
X97026500Y-49147750D01*
X97026500Y-58997750D02*
X97026500Y-55687750D01*
X95656500Y-49147750D02*
X98396500Y-49147750D01*
X98396500Y-55687750D01*
X95656500Y-55687750D01*
X95656500Y-49147750D01*
%TO.C,A2*%
X122772750Y-51335250D02*
X122772750Y-59215250D01*
X122772750Y-59215250D02*
X133192750Y-59215250D01*
X125312750Y-46255250D02*
X125312750Y-51335250D01*
X125312750Y-46255250D02*
X168752750Y-46255250D01*
X125312750Y-64295250D02*
X125312750Y-59215250D01*
X127982750Y-48925250D02*
X127982750Y-46255250D01*
X127982750Y-61625250D02*
X127982750Y-64295250D01*
X133192750Y-51335250D02*
X122772750Y-51335250D01*
X133192750Y-59215250D02*
X133192750Y-51335250D01*
X163542750Y-61625250D02*
X127982750Y-61625250D01*
X163542750Y-61625250D02*
X163542750Y-64295250D01*
X163542750Y-61625250D02*
X166082750Y-61625250D01*
X163542750Y-64295250D02*
X125312750Y-64295250D01*
X166082750Y-48925250D02*
X127982750Y-48925250D01*
X166082750Y-48925250D02*
X166082750Y-46255250D01*
X166082750Y-61625250D02*
X166082750Y-64295250D01*
X168752750Y-46255250D02*
X168752750Y-64295250D01*
X168752750Y-64295250D02*
X166082750Y-64295250D01*
%TO.C,R2*%
X97590250Y-40511500D02*
X100900250Y-40511500D01*
X110750250Y-40511500D02*
X107440250Y-40511500D01*
X100900250Y-41881500D02*
X107440250Y-41881500D01*
X107440250Y-39141500D01*
X100900250Y-39141500D01*
X100900250Y-41881500D01*
%TD*%
M02*
