%TF.GenerationSoftware,KiCad,Pcbnew,9.0.2*%
%TF.CreationDate,2025-05-15T02:22:54+10:00*%
%TF.ProjectId,Calculator,43616c63-756c-4617-946f-722e6b696361,rev?*%
%TF.SameCoordinates,Original*%
%TF.FileFunction,Legend,Top*%
%TF.FilePolarity,Positive*%
%FSLAX46Y46*%
G04 Gerber Fmt 4.6, Leading zero omitted, Abs format (unit mm)*
G04 Created by KiCad (PCBNEW 9.0.2) date 2025-05-15 02:22:54*
%MOMM*%
%LPD*%
G01*
G04 APERTURE LIST*
%ADD10C,0.150000*%
%ADD11C,0.120000*%
%ADD12C,0.127000*%
G04 APERTURE END LIST*
D10*
X62666666Y-32304819D02*
X62333333Y-31828628D01*
X62095238Y-32304819D02*
X62095238Y-31304819D01*
X62095238Y-31304819D02*
X62476190Y-31304819D01*
X62476190Y-31304819D02*
X62571428Y-31352438D01*
X62571428Y-31352438D02*
X62619047Y-31400057D01*
X62619047Y-31400057D02*
X62666666Y-31495295D01*
X62666666Y-31495295D02*
X62666666Y-31638152D01*
X62666666Y-31638152D02*
X62619047Y-31733390D01*
X62619047Y-31733390D02*
X62571428Y-31781009D01*
X62571428Y-31781009D02*
X62476190Y-31828628D01*
X62476190Y-31828628D02*
X62095238Y-31828628D01*
X63095238Y-31781009D02*
X63428571Y-31781009D01*
X63571428Y-32304819D02*
X63095238Y-32304819D01*
X63095238Y-32304819D02*
X63095238Y-31304819D01*
X63095238Y-31304819D02*
X63571428Y-31304819D01*
X64333333Y-31781009D02*
X64000000Y-31781009D01*
X64000000Y-32304819D02*
X64000000Y-31304819D01*
X64000000Y-31304819D02*
X64476190Y-31304819D01*
X65000000Y-31304819D02*
X65000000Y-31542914D01*
X64761905Y-31447676D02*
X65000000Y-31542914D01*
X65000000Y-31542914D02*
X65238095Y-31447676D01*
X64857143Y-31733390D02*
X65000000Y-31542914D01*
X65000000Y-31542914D02*
X65142857Y-31733390D01*
X65761905Y-31304819D02*
X65761905Y-31542914D01*
X65523810Y-31447676D02*
X65761905Y-31542914D01*
X65761905Y-31542914D02*
X66000000Y-31447676D01*
X65619048Y-31733390D02*
X65761905Y-31542914D01*
X65761905Y-31542914D02*
X65904762Y-31733390D01*
X141166666Y-32304819D02*
X140833333Y-31828628D01*
X140595238Y-32304819D02*
X140595238Y-31304819D01*
X140595238Y-31304819D02*
X140976190Y-31304819D01*
X140976190Y-31304819D02*
X141071428Y-31352438D01*
X141071428Y-31352438D02*
X141119047Y-31400057D01*
X141119047Y-31400057D02*
X141166666Y-31495295D01*
X141166666Y-31495295D02*
X141166666Y-31638152D01*
X141166666Y-31638152D02*
X141119047Y-31733390D01*
X141119047Y-31733390D02*
X141071428Y-31781009D01*
X141071428Y-31781009D02*
X140976190Y-31828628D01*
X140976190Y-31828628D02*
X140595238Y-31828628D01*
X141595238Y-31781009D02*
X141928571Y-31781009D01*
X142071428Y-32304819D02*
X141595238Y-32304819D01*
X141595238Y-32304819D02*
X141595238Y-31304819D01*
X141595238Y-31304819D02*
X142071428Y-31304819D01*
X142833333Y-31781009D02*
X142500000Y-31781009D01*
X142500000Y-32304819D02*
X142500000Y-31304819D01*
X142500000Y-31304819D02*
X142976190Y-31304819D01*
X143500000Y-31304819D02*
X143500000Y-31542914D01*
X143261905Y-31447676D02*
X143500000Y-31542914D01*
X143500000Y-31542914D02*
X143738095Y-31447676D01*
X143357143Y-31733390D02*
X143500000Y-31542914D01*
X143500000Y-31542914D02*
X143642857Y-31733390D01*
X144261905Y-31304819D02*
X144261905Y-31542914D01*
X144023810Y-31447676D02*
X144261905Y-31542914D01*
X144261905Y-31542914D02*
X144500000Y-31447676D01*
X144119048Y-31733390D02*
X144261905Y-31542914D01*
X144261905Y-31542914D02*
X144404762Y-31733390D01*
X82824405Y-155075950D02*
X82967262Y-155123569D01*
X82967262Y-155123569D02*
X83205357Y-155123569D01*
X83205357Y-155123569D02*
X83300595Y-155075950D01*
X83300595Y-155075950D02*
X83348214Y-155028330D01*
X83348214Y-155028330D02*
X83395833Y-154933092D01*
X83395833Y-154933092D02*
X83395833Y-154837854D01*
X83395833Y-154837854D02*
X83348214Y-154742616D01*
X83348214Y-154742616D02*
X83300595Y-154694997D01*
X83300595Y-154694997D02*
X83205357Y-154647378D01*
X83205357Y-154647378D02*
X83014881Y-154599759D01*
X83014881Y-154599759D02*
X82919643Y-154552140D01*
X82919643Y-154552140D02*
X82872024Y-154504521D01*
X82872024Y-154504521D02*
X82824405Y-154409283D01*
X82824405Y-154409283D02*
X82824405Y-154314045D01*
X82824405Y-154314045D02*
X82872024Y-154218807D01*
X82872024Y-154218807D02*
X82919643Y-154171188D01*
X82919643Y-154171188D02*
X83014881Y-154123569D01*
X83014881Y-154123569D02*
X83252976Y-154123569D01*
X83252976Y-154123569D02*
X83395833Y-154171188D01*
X84348214Y-155123569D02*
X83776786Y-155123569D01*
X84062500Y-155123569D02*
X84062500Y-154123569D01*
X84062500Y-154123569D02*
X83967262Y-154266426D01*
X83967262Y-154266426D02*
X83872024Y-154361664D01*
X83872024Y-154361664D02*
X83776786Y-154409283D01*
X84681548Y-154123569D02*
X85348214Y-154123569D01*
X85348214Y-154123569D02*
X84919643Y-155123569D01*
X130449405Y-145550950D02*
X130592262Y-145598569D01*
X130592262Y-145598569D02*
X130830357Y-145598569D01*
X130830357Y-145598569D02*
X130925595Y-145550950D01*
X130925595Y-145550950D02*
X130973214Y-145503330D01*
X130973214Y-145503330D02*
X131020833Y-145408092D01*
X131020833Y-145408092D02*
X131020833Y-145312854D01*
X131020833Y-145312854D02*
X130973214Y-145217616D01*
X130973214Y-145217616D02*
X130925595Y-145169997D01*
X130925595Y-145169997D02*
X130830357Y-145122378D01*
X130830357Y-145122378D02*
X130639881Y-145074759D01*
X130639881Y-145074759D02*
X130544643Y-145027140D01*
X130544643Y-145027140D02*
X130497024Y-144979521D01*
X130497024Y-144979521D02*
X130449405Y-144884283D01*
X130449405Y-144884283D02*
X130449405Y-144789045D01*
X130449405Y-144789045D02*
X130497024Y-144693807D01*
X130497024Y-144693807D02*
X130544643Y-144646188D01*
X130544643Y-144646188D02*
X130639881Y-144598569D01*
X130639881Y-144598569D02*
X130877976Y-144598569D01*
X130877976Y-144598569D02*
X131020833Y-144646188D01*
X131973214Y-145598569D02*
X131401786Y-145598569D01*
X131687500Y-145598569D02*
X131687500Y-144598569D01*
X131687500Y-144598569D02*
X131592262Y-144741426D01*
X131592262Y-144741426D02*
X131497024Y-144836664D01*
X131497024Y-144836664D02*
X131401786Y-144884283D01*
X132830357Y-144598569D02*
X132639881Y-144598569D01*
X132639881Y-144598569D02*
X132544643Y-144646188D01*
X132544643Y-144646188D02*
X132497024Y-144693807D01*
X132497024Y-144693807D02*
X132401786Y-144836664D01*
X132401786Y-144836664D02*
X132354167Y-145027140D01*
X132354167Y-145027140D02*
X132354167Y-145408092D01*
X132354167Y-145408092D02*
X132401786Y-145503330D01*
X132401786Y-145503330D02*
X132449405Y-145550950D01*
X132449405Y-145550950D02*
X132544643Y-145598569D01*
X132544643Y-145598569D02*
X132735119Y-145598569D01*
X132735119Y-145598569D02*
X132830357Y-145550950D01*
X132830357Y-145550950D02*
X132877976Y-145503330D01*
X132877976Y-145503330D02*
X132925595Y-145408092D01*
X132925595Y-145408092D02*
X132925595Y-145169997D01*
X132925595Y-145169997D02*
X132877976Y-145074759D01*
X132877976Y-145074759D02*
X132830357Y-145027140D01*
X132830357Y-145027140D02*
X132735119Y-144979521D01*
X132735119Y-144979521D02*
X132544643Y-144979521D01*
X132544643Y-144979521D02*
X132449405Y-145027140D01*
X132449405Y-145027140D02*
X132401786Y-145074759D01*
X132401786Y-145074759D02*
X132354167Y-145169997D01*
X73775595Y-78875950D02*
X73918452Y-78923569D01*
X73918452Y-78923569D02*
X74156547Y-78923569D01*
X74156547Y-78923569D02*
X74251785Y-78875950D01*
X74251785Y-78875950D02*
X74299404Y-78828330D01*
X74299404Y-78828330D02*
X74347023Y-78733092D01*
X74347023Y-78733092D02*
X74347023Y-78637854D01*
X74347023Y-78637854D02*
X74299404Y-78542616D01*
X74299404Y-78542616D02*
X74251785Y-78494997D01*
X74251785Y-78494997D02*
X74156547Y-78447378D01*
X74156547Y-78447378D02*
X73966071Y-78399759D01*
X73966071Y-78399759D02*
X73870833Y-78352140D01*
X73870833Y-78352140D02*
X73823214Y-78304521D01*
X73823214Y-78304521D02*
X73775595Y-78209283D01*
X73775595Y-78209283D02*
X73775595Y-78114045D01*
X73775595Y-78114045D02*
X73823214Y-78018807D01*
X73823214Y-78018807D02*
X73870833Y-77971188D01*
X73870833Y-77971188D02*
X73966071Y-77923569D01*
X73966071Y-77923569D02*
X74204166Y-77923569D01*
X74204166Y-77923569D02*
X74347023Y-77971188D01*
X75299404Y-78923569D02*
X74727976Y-78923569D01*
X75013690Y-78923569D02*
X75013690Y-77923569D01*
X75013690Y-77923569D02*
X74918452Y-78066426D01*
X74918452Y-78066426D02*
X74823214Y-78161664D01*
X74823214Y-78161664D02*
X74727976Y-78209283D01*
X71394345Y-43061069D02*
X71394345Y-43870592D01*
X71394345Y-43870592D02*
X71441964Y-43965830D01*
X71441964Y-43965830D02*
X71489583Y-44013450D01*
X71489583Y-44013450D02*
X71584821Y-44061069D01*
X71584821Y-44061069D02*
X71775297Y-44061069D01*
X71775297Y-44061069D02*
X71870535Y-44013450D01*
X71870535Y-44013450D02*
X71918154Y-43965830D01*
X71918154Y-43965830D02*
X71965773Y-43870592D01*
X71965773Y-43870592D02*
X71965773Y-43061069D01*
X72965773Y-44061069D02*
X72394345Y-44061069D01*
X72680059Y-44061069D02*
X72680059Y-43061069D01*
X72680059Y-43061069D02*
X72584821Y-43203926D01*
X72584821Y-43203926D02*
X72489583Y-43299164D01*
X72489583Y-43299164D02*
X72394345Y-43346783D01*
X107684523Y-70254819D02*
X107113095Y-70254819D01*
X107398809Y-70254819D02*
X107398809Y-69254819D01*
X107398809Y-69254819D02*
X107303571Y-69397676D01*
X107303571Y-69397676D02*
X107208333Y-69492914D01*
X107208333Y-69492914D02*
X107113095Y-69540533D01*
X108541666Y-69254819D02*
X108351190Y-69254819D01*
X108351190Y-69254819D02*
X108255952Y-69302438D01*
X108255952Y-69302438D02*
X108208333Y-69350057D01*
X108208333Y-69350057D02*
X108113095Y-69492914D01*
X108113095Y-69492914D02*
X108065476Y-69683390D01*
X108065476Y-69683390D02*
X108065476Y-70064342D01*
X108065476Y-70064342D02*
X108113095Y-70159580D01*
X108113095Y-70159580D02*
X108160714Y-70207200D01*
X108160714Y-70207200D02*
X108255952Y-70254819D01*
X108255952Y-70254819D02*
X108446428Y-70254819D01*
X108446428Y-70254819D02*
X108541666Y-70207200D01*
X108541666Y-70207200D02*
X108589285Y-70159580D01*
X108589285Y-70159580D02*
X108636904Y-70064342D01*
X108636904Y-70064342D02*
X108636904Y-69826247D01*
X108636904Y-69826247D02*
X108589285Y-69731009D01*
X108589285Y-69731009D02*
X108541666Y-69683390D01*
X108541666Y-69683390D02*
X108446428Y-69635771D01*
X108446428Y-69635771D02*
X108255952Y-69635771D01*
X108255952Y-69635771D02*
X108160714Y-69683390D01*
X108160714Y-69683390D02*
X108113095Y-69731009D01*
X108113095Y-69731009D02*
X108065476Y-69826247D01*
X70119464Y-71636069D02*
X69548036Y-71636069D01*
X69833750Y-71636069D02*
X69833750Y-70636069D01*
X69833750Y-70636069D02*
X69738512Y-70778926D01*
X69738512Y-70778926D02*
X69643274Y-70874164D01*
X69643274Y-70874164D02*
X69548036Y-70921783D01*
X111399405Y-155075950D02*
X111542262Y-155123569D01*
X111542262Y-155123569D02*
X111780357Y-155123569D01*
X111780357Y-155123569D02*
X111875595Y-155075950D01*
X111875595Y-155075950D02*
X111923214Y-155028330D01*
X111923214Y-155028330D02*
X111970833Y-154933092D01*
X111970833Y-154933092D02*
X111970833Y-154837854D01*
X111970833Y-154837854D02*
X111923214Y-154742616D01*
X111923214Y-154742616D02*
X111875595Y-154694997D01*
X111875595Y-154694997D02*
X111780357Y-154647378D01*
X111780357Y-154647378D02*
X111589881Y-154599759D01*
X111589881Y-154599759D02*
X111494643Y-154552140D01*
X111494643Y-154552140D02*
X111447024Y-154504521D01*
X111447024Y-154504521D02*
X111399405Y-154409283D01*
X111399405Y-154409283D02*
X111399405Y-154314045D01*
X111399405Y-154314045D02*
X111447024Y-154218807D01*
X111447024Y-154218807D02*
X111494643Y-154171188D01*
X111494643Y-154171188D02*
X111589881Y-154123569D01*
X111589881Y-154123569D02*
X111827976Y-154123569D01*
X111827976Y-154123569D02*
X111970833Y-154171188D01*
X112923214Y-155123569D02*
X112351786Y-155123569D01*
X112637500Y-155123569D02*
X112637500Y-154123569D01*
X112637500Y-154123569D02*
X112542262Y-154266426D01*
X112542262Y-154266426D02*
X112447024Y-154361664D01*
X112447024Y-154361664D02*
X112351786Y-154409283D01*
X113494643Y-154552140D02*
X113399405Y-154504521D01*
X113399405Y-154504521D02*
X113351786Y-154456902D01*
X113351786Y-154456902D02*
X113304167Y-154361664D01*
X113304167Y-154361664D02*
X113304167Y-154314045D01*
X113304167Y-154314045D02*
X113351786Y-154218807D01*
X113351786Y-154218807D02*
X113399405Y-154171188D01*
X113399405Y-154171188D02*
X113494643Y-154123569D01*
X113494643Y-154123569D02*
X113685119Y-154123569D01*
X113685119Y-154123569D02*
X113780357Y-154171188D01*
X113780357Y-154171188D02*
X113827976Y-154218807D01*
X113827976Y-154218807D02*
X113875595Y-154314045D01*
X113875595Y-154314045D02*
X113875595Y-154361664D01*
X113875595Y-154361664D02*
X113827976Y-154456902D01*
X113827976Y-154456902D02*
X113780357Y-154504521D01*
X113780357Y-154504521D02*
X113685119Y-154552140D01*
X113685119Y-154552140D02*
X113494643Y-154552140D01*
X113494643Y-154552140D02*
X113399405Y-154599759D01*
X113399405Y-154599759D02*
X113351786Y-154647378D01*
X113351786Y-154647378D02*
X113304167Y-154742616D01*
X113304167Y-154742616D02*
X113304167Y-154933092D01*
X113304167Y-154933092D02*
X113351786Y-155028330D01*
X113351786Y-155028330D02*
X113399405Y-155075950D01*
X113399405Y-155075950D02*
X113494643Y-155123569D01*
X113494643Y-155123569D02*
X113685119Y-155123569D01*
X113685119Y-155123569D02*
X113780357Y-155075950D01*
X113780357Y-155075950D02*
X113827976Y-155028330D01*
X113827976Y-155028330D02*
X113875595Y-154933092D01*
X113875595Y-154933092D02*
X113875595Y-154742616D01*
X113875595Y-154742616D02*
X113827976Y-154647378D01*
X113827976Y-154647378D02*
X113780357Y-154599759D01*
X113780357Y-154599759D02*
X113685119Y-154552140D01*
X111399405Y-136025950D02*
X111542262Y-136073569D01*
X111542262Y-136073569D02*
X111780357Y-136073569D01*
X111780357Y-136073569D02*
X111875595Y-136025950D01*
X111875595Y-136025950D02*
X111923214Y-135978330D01*
X111923214Y-135978330D02*
X111970833Y-135883092D01*
X111970833Y-135883092D02*
X111970833Y-135787854D01*
X111970833Y-135787854D02*
X111923214Y-135692616D01*
X111923214Y-135692616D02*
X111875595Y-135644997D01*
X111875595Y-135644997D02*
X111780357Y-135597378D01*
X111780357Y-135597378D02*
X111589881Y-135549759D01*
X111589881Y-135549759D02*
X111494643Y-135502140D01*
X111494643Y-135502140D02*
X111447024Y-135454521D01*
X111447024Y-135454521D02*
X111399405Y-135359283D01*
X111399405Y-135359283D02*
X111399405Y-135264045D01*
X111399405Y-135264045D02*
X111447024Y-135168807D01*
X111447024Y-135168807D02*
X111494643Y-135121188D01*
X111494643Y-135121188D02*
X111589881Y-135073569D01*
X111589881Y-135073569D02*
X111827976Y-135073569D01*
X111827976Y-135073569D02*
X111970833Y-135121188D01*
X112923214Y-136073569D02*
X112351786Y-136073569D01*
X112637500Y-136073569D02*
X112637500Y-135073569D01*
X112637500Y-135073569D02*
X112542262Y-135216426D01*
X112542262Y-135216426D02*
X112447024Y-135311664D01*
X112447024Y-135311664D02*
X112351786Y-135359283D01*
X113827976Y-135073569D02*
X113351786Y-135073569D01*
X113351786Y-135073569D02*
X113304167Y-135549759D01*
X113304167Y-135549759D02*
X113351786Y-135502140D01*
X113351786Y-135502140D02*
X113447024Y-135454521D01*
X113447024Y-135454521D02*
X113685119Y-135454521D01*
X113685119Y-135454521D02*
X113780357Y-135502140D01*
X113780357Y-135502140D02*
X113827976Y-135549759D01*
X113827976Y-135549759D02*
X113875595Y-135644997D01*
X113875595Y-135644997D02*
X113875595Y-135883092D01*
X113875595Y-135883092D02*
X113827976Y-135978330D01*
X113827976Y-135978330D02*
X113780357Y-136025950D01*
X113780357Y-136025950D02*
X113685119Y-136073569D01*
X113685119Y-136073569D02*
X113447024Y-136073569D01*
X113447024Y-136073569D02*
X113351786Y-136025950D01*
X113351786Y-136025950D02*
X113304167Y-135978330D01*
X92349405Y-136025950D02*
X92492262Y-136073569D01*
X92492262Y-136073569D02*
X92730357Y-136073569D01*
X92730357Y-136073569D02*
X92825595Y-136025950D01*
X92825595Y-136025950D02*
X92873214Y-135978330D01*
X92873214Y-135978330D02*
X92920833Y-135883092D01*
X92920833Y-135883092D02*
X92920833Y-135787854D01*
X92920833Y-135787854D02*
X92873214Y-135692616D01*
X92873214Y-135692616D02*
X92825595Y-135644997D01*
X92825595Y-135644997D02*
X92730357Y-135597378D01*
X92730357Y-135597378D02*
X92539881Y-135549759D01*
X92539881Y-135549759D02*
X92444643Y-135502140D01*
X92444643Y-135502140D02*
X92397024Y-135454521D01*
X92397024Y-135454521D02*
X92349405Y-135359283D01*
X92349405Y-135359283D02*
X92349405Y-135264045D01*
X92349405Y-135264045D02*
X92397024Y-135168807D01*
X92397024Y-135168807D02*
X92444643Y-135121188D01*
X92444643Y-135121188D02*
X92539881Y-135073569D01*
X92539881Y-135073569D02*
X92777976Y-135073569D01*
X92777976Y-135073569D02*
X92920833Y-135121188D01*
X93873214Y-136073569D02*
X93301786Y-136073569D01*
X93587500Y-136073569D02*
X93587500Y-135073569D01*
X93587500Y-135073569D02*
X93492262Y-135216426D01*
X93492262Y-135216426D02*
X93397024Y-135311664D01*
X93397024Y-135311664D02*
X93301786Y-135359283D01*
X94730357Y-135406902D02*
X94730357Y-136073569D01*
X94492262Y-135025950D02*
X94254167Y-135740235D01*
X94254167Y-135740235D02*
X94873214Y-135740235D01*
X73299405Y-136025950D02*
X73442262Y-136073569D01*
X73442262Y-136073569D02*
X73680357Y-136073569D01*
X73680357Y-136073569D02*
X73775595Y-136025950D01*
X73775595Y-136025950D02*
X73823214Y-135978330D01*
X73823214Y-135978330D02*
X73870833Y-135883092D01*
X73870833Y-135883092D02*
X73870833Y-135787854D01*
X73870833Y-135787854D02*
X73823214Y-135692616D01*
X73823214Y-135692616D02*
X73775595Y-135644997D01*
X73775595Y-135644997D02*
X73680357Y-135597378D01*
X73680357Y-135597378D02*
X73489881Y-135549759D01*
X73489881Y-135549759D02*
X73394643Y-135502140D01*
X73394643Y-135502140D02*
X73347024Y-135454521D01*
X73347024Y-135454521D02*
X73299405Y-135359283D01*
X73299405Y-135359283D02*
X73299405Y-135264045D01*
X73299405Y-135264045D02*
X73347024Y-135168807D01*
X73347024Y-135168807D02*
X73394643Y-135121188D01*
X73394643Y-135121188D02*
X73489881Y-135073569D01*
X73489881Y-135073569D02*
X73727976Y-135073569D01*
X73727976Y-135073569D02*
X73870833Y-135121188D01*
X74823214Y-136073569D02*
X74251786Y-136073569D01*
X74537500Y-136073569D02*
X74537500Y-135073569D01*
X74537500Y-135073569D02*
X74442262Y-135216426D01*
X74442262Y-135216426D02*
X74347024Y-135311664D01*
X74347024Y-135311664D02*
X74251786Y-135359283D01*
X75156548Y-135073569D02*
X75775595Y-135073569D01*
X75775595Y-135073569D02*
X75442262Y-135454521D01*
X75442262Y-135454521D02*
X75585119Y-135454521D01*
X75585119Y-135454521D02*
X75680357Y-135502140D01*
X75680357Y-135502140D02*
X75727976Y-135549759D01*
X75727976Y-135549759D02*
X75775595Y-135644997D01*
X75775595Y-135644997D02*
X75775595Y-135883092D01*
X75775595Y-135883092D02*
X75727976Y-135978330D01*
X75727976Y-135978330D02*
X75680357Y-136025950D01*
X75680357Y-136025950D02*
X75585119Y-136073569D01*
X75585119Y-136073569D02*
X75299405Y-136073569D01*
X75299405Y-136073569D02*
X75204167Y-136025950D01*
X75204167Y-136025950D02*
X75156548Y-135978330D01*
X130449405Y-116975950D02*
X130592262Y-117023569D01*
X130592262Y-117023569D02*
X130830357Y-117023569D01*
X130830357Y-117023569D02*
X130925595Y-116975950D01*
X130925595Y-116975950D02*
X130973214Y-116928330D01*
X130973214Y-116928330D02*
X131020833Y-116833092D01*
X131020833Y-116833092D02*
X131020833Y-116737854D01*
X131020833Y-116737854D02*
X130973214Y-116642616D01*
X130973214Y-116642616D02*
X130925595Y-116594997D01*
X130925595Y-116594997D02*
X130830357Y-116547378D01*
X130830357Y-116547378D02*
X130639881Y-116499759D01*
X130639881Y-116499759D02*
X130544643Y-116452140D01*
X130544643Y-116452140D02*
X130497024Y-116404521D01*
X130497024Y-116404521D02*
X130449405Y-116309283D01*
X130449405Y-116309283D02*
X130449405Y-116214045D01*
X130449405Y-116214045D02*
X130497024Y-116118807D01*
X130497024Y-116118807D02*
X130544643Y-116071188D01*
X130544643Y-116071188D02*
X130639881Y-116023569D01*
X130639881Y-116023569D02*
X130877976Y-116023569D01*
X130877976Y-116023569D02*
X131020833Y-116071188D01*
X131973214Y-117023569D02*
X131401786Y-117023569D01*
X131687500Y-117023569D02*
X131687500Y-116023569D01*
X131687500Y-116023569D02*
X131592262Y-116166426D01*
X131592262Y-116166426D02*
X131497024Y-116261664D01*
X131497024Y-116261664D02*
X131401786Y-116309283D01*
X132354167Y-116118807D02*
X132401786Y-116071188D01*
X132401786Y-116071188D02*
X132497024Y-116023569D01*
X132497024Y-116023569D02*
X132735119Y-116023569D01*
X132735119Y-116023569D02*
X132830357Y-116071188D01*
X132830357Y-116071188D02*
X132877976Y-116118807D01*
X132877976Y-116118807D02*
X132925595Y-116214045D01*
X132925595Y-116214045D02*
X132925595Y-116309283D01*
X132925595Y-116309283D02*
X132877976Y-116452140D01*
X132877976Y-116452140D02*
X132306548Y-117023569D01*
X132306548Y-117023569D02*
X132925595Y-117023569D01*
X111399405Y-116975950D02*
X111542262Y-117023569D01*
X111542262Y-117023569D02*
X111780357Y-117023569D01*
X111780357Y-117023569D02*
X111875595Y-116975950D01*
X111875595Y-116975950D02*
X111923214Y-116928330D01*
X111923214Y-116928330D02*
X111970833Y-116833092D01*
X111970833Y-116833092D02*
X111970833Y-116737854D01*
X111970833Y-116737854D02*
X111923214Y-116642616D01*
X111923214Y-116642616D02*
X111875595Y-116594997D01*
X111875595Y-116594997D02*
X111780357Y-116547378D01*
X111780357Y-116547378D02*
X111589881Y-116499759D01*
X111589881Y-116499759D02*
X111494643Y-116452140D01*
X111494643Y-116452140D02*
X111447024Y-116404521D01*
X111447024Y-116404521D02*
X111399405Y-116309283D01*
X111399405Y-116309283D02*
X111399405Y-116214045D01*
X111399405Y-116214045D02*
X111447024Y-116118807D01*
X111447024Y-116118807D02*
X111494643Y-116071188D01*
X111494643Y-116071188D02*
X111589881Y-116023569D01*
X111589881Y-116023569D02*
X111827976Y-116023569D01*
X111827976Y-116023569D02*
X111970833Y-116071188D01*
X112923214Y-117023569D02*
X112351786Y-117023569D01*
X112637500Y-117023569D02*
X112637500Y-116023569D01*
X112637500Y-116023569D02*
X112542262Y-116166426D01*
X112542262Y-116166426D02*
X112447024Y-116261664D01*
X112447024Y-116261664D02*
X112351786Y-116309283D01*
X113875595Y-117023569D02*
X113304167Y-117023569D01*
X113589881Y-117023569D02*
X113589881Y-116023569D01*
X113589881Y-116023569D02*
X113494643Y-116166426D01*
X113494643Y-116166426D02*
X113399405Y-116261664D01*
X113399405Y-116261664D02*
X113304167Y-116309283D01*
X92349405Y-116975950D02*
X92492262Y-117023569D01*
X92492262Y-117023569D02*
X92730357Y-117023569D01*
X92730357Y-117023569D02*
X92825595Y-116975950D01*
X92825595Y-116975950D02*
X92873214Y-116928330D01*
X92873214Y-116928330D02*
X92920833Y-116833092D01*
X92920833Y-116833092D02*
X92920833Y-116737854D01*
X92920833Y-116737854D02*
X92873214Y-116642616D01*
X92873214Y-116642616D02*
X92825595Y-116594997D01*
X92825595Y-116594997D02*
X92730357Y-116547378D01*
X92730357Y-116547378D02*
X92539881Y-116499759D01*
X92539881Y-116499759D02*
X92444643Y-116452140D01*
X92444643Y-116452140D02*
X92397024Y-116404521D01*
X92397024Y-116404521D02*
X92349405Y-116309283D01*
X92349405Y-116309283D02*
X92349405Y-116214045D01*
X92349405Y-116214045D02*
X92397024Y-116118807D01*
X92397024Y-116118807D02*
X92444643Y-116071188D01*
X92444643Y-116071188D02*
X92539881Y-116023569D01*
X92539881Y-116023569D02*
X92777976Y-116023569D01*
X92777976Y-116023569D02*
X92920833Y-116071188D01*
X93873214Y-117023569D02*
X93301786Y-117023569D01*
X93587500Y-117023569D02*
X93587500Y-116023569D01*
X93587500Y-116023569D02*
X93492262Y-116166426D01*
X93492262Y-116166426D02*
X93397024Y-116261664D01*
X93397024Y-116261664D02*
X93301786Y-116309283D01*
X94492262Y-116023569D02*
X94587500Y-116023569D01*
X94587500Y-116023569D02*
X94682738Y-116071188D01*
X94682738Y-116071188D02*
X94730357Y-116118807D01*
X94730357Y-116118807D02*
X94777976Y-116214045D01*
X94777976Y-116214045D02*
X94825595Y-116404521D01*
X94825595Y-116404521D02*
X94825595Y-116642616D01*
X94825595Y-116642616D02*
X94777976Y-116833092D01*
X94777976Y-116833092D02*
X94730357Y-116928330D01*
X94730357Y-116928330D02*
X94682738Y-116975950D01*
X94682738Y-116975950D02*
X94587500Y-117023569D01*
X94587500Y-117023569D02*
X94492262Y-117023569D01*
X94492262Y-117023569D02*
X94397024Y-116975950D01*
X94397024Y-116975950D02*
X94349405Y-116928330D01*
X94349405Y-116928330D02*
X94301786Y-116833092D01*
X94301786Y-116833092D02*
X94254167Y-116642616D01*
X94254167Y-116642616D02*
X94254167Y-116404521D01*
X94254167Y-116404521D02*
X94301786Y-116214045D01*
X94301786Y-116214045D02*
X94349405Y-116118807D01*
X94349405Y-116118807D02*
X94397024Y-116071188D01*
X94397024Y-116071188D02*
X94492262Y-116023569D01*
X73775595Y-116975950D02*
X73918452Y-117023569D01*
X73918452Y-117023569D02*
X74156547Y-117023569D01*
X74156547Y-117023569D02*
X74251785Y-116975950D01*
X74251785Y-116975950D02*
X74299404Y-116928330D01*
X74299404Y-116928330D02*
X74347023Y-116833092D01*
X74347023Y-116833092D02*
X74347023Y-116737854D01*
X74347023Y-116737854D02*
X74299404Y-116642616D01*
X74299404Y-116642616D02*
X74251785Y-116594997D01*
X74251785Y-116594997D02*
X74156547Y-116547378D01*
X74156547Y-116547378D02*
X73966071Y-116499759D01*
X73966071Y-116499759D02*
X73870833Y-116452140D01*
X73870833Y-116452140D02*
X73823214Y-116404521D01*
X73823214Y-116404521D02*
X73775595Y-116309283D01*
X73775595Y-116309283D02*
X73775595Y-116214045D01*
X73775595Y-116214045D02*
X73823214Y-116118807D01*
X73823214Y-116118807D02*
X73870833Y-116071188D01*
X73870833Y-116071188D02*
X73966071Y-116023569D01*
X73966071Y-116023569D02*
X74204166Y-116023569D01*
X74204166Y-116023569D02*
X74347023Y-116071188D01*
X74823214Y-117023569D02*
X75013690Y-117023569D01*
X75013690Y-117023569D02*
X75108928Y-116975950D01*
X75108928Y-116975950D02*
X75156547Y-116928330D01*
X75156547Y-116928330D02*
X75251785Y-116785473D01*
X75251785Y-116785473D02*
X75299404Y-116594997D01*
X75299404Y-116594997D02*
X75299404Y-116214045D01*
X75299404Y-116214045D02*
X75251785Y-116118807D01*
X75251785Y-116118807D02*
X75204166Y-116071188D01*
X75204166Y-116071188D02*
X75108928Y-116023569D01*
X75108928Y-116023569D02*
X74918452Y-116023569D01*
X74918452Y-116023569D02*
X74823214Y-116071188D01*
X74823214Y-116071188D02*
X74775595Y-116118807D01*
X74775595Y-116118807D02*
X74727976Y-116214045D01*
X74727976Y-116214045D02*
X74727976Y-116452140D01*
X74727976Y-116452140D02*
X74775595Y-116547378D01*
X74775595Y-116547378D02*
X74823214Y-116594997D01*
X74823214Y-116594997D02*
X74918452Y-116642616D01*
X74918452Y-116642616D02*
X75108928Y-116642616D01*
X75108928Y-116642616D02*
X75204166Y-116594997D01*
X75204166Y-116594997D02*
X75251785Y-116547378D01*
X75251785Y-116547378D02*
X75299404Y-116452140D01*
X130925595Y-97925950D02*
X131068452Y-97973569D01*
X131068452Y-97973569D02*
X131306547Y-97973569D01*
X131306547Y-97973569D02*
X131401785Y-97925950D01*
X131401785Y-97925950D02*
X131449404Y-97878330D01*
X131449404Y-97878330D02*
X131497023Y-97783092D01*
X131497023Y-97783092D02*
X131497023Y-97687854D01*
X131497023Y-97687854D02*
X131449404Y-97592616D01*
X131449404Y-97592616D02*
X131401785Y-97544997D01*
X131401785Y-97544997D02*
X131306547Y-97497378D01*
X131306547Y-97497378D02*
X131116071Y-97449759D01*
X131116071Y-97449759D02*
X131020833Y-97402140D01*
X131020833Y-97402140D02*
X130973214Y-97354521D01*
X130973214Y-97354521D02*
X130925595Y-97259283D01*
X130925595Y-97259283D02*
X130925595Y-97164045D01*
X130925595Y-97164045D02*
X130973214Y-97068807D01*
X130973214Y-97068807D02*
X131020833Y-97021188D01*
X131020833Y-97021188D02*
X131116071Y-96973569D01*
X131116071Y-96973569D02*
X131354166Y-96973569D01*
X131354166Y-96973569D02*
X131497023Y-97021188D01*
X132068452Y-97402140D02*
X131973214Y-97354521D01*
X131973214Y-97354521D02*
X131925595Y-97306902D01*
X131925595Y-97306902D02*
X131877976Y-97211664D01*
X131877976Y-97211664D02*
X131877976Y-97164045D01*
X131877976Y-97164045D02*
X131925595Y-97068807D01*
X131925595Y-97068807D02*
X131973214Y-97021188D01*
X131973214Y-97021188D02*
X132068452Y-96973569D01*
X132068452Y-96973569D02*
X132258928Y-96973569D01*
X132258928Y-96973569D02*
X132354166Y-97021188D01*
X132354166Y-97021188D02*
X132401785Y-97068807D01*
X132401785Y-97068807D02*
X132449404Y-97164045D01*
X132449404Y-97164045D02*
X132449404Y-97211664D01*
X132449404Y-97211664D02*
X132401785Y-97306902D01*
X132401785Y-97306902D02*
X132354166Y-97354521D01*
X132354166Y-97354521D02*
X132258928Y-97402140D01*
X132258928Y-97402140D02*
X132068452Y-97402140D01*
X132068452Y-97402140D02*
X131973214Y-97449759D01*
X131973214Y-97449759D02*
X131925595Y-97497378D01*
X131925595Y-97497378D02*
X131877976Y-97592616D01*
X131877976Y-97592616D02*
X131877976Y-97783092D01*
X131877976Y-97783092D02*
X131925595Y-97878330D01*
X131925595Y-97878330D02*
X131973214Y-97925950D01*
X131973214Y-97925950D02*
X132068452Y-97973569D01*
X132068452Y-97973569D02*
X132258928Y-97973569D01*
X132258928Y-97973569D02*
X132354166Y-97925950D01*
X132354166Y-97925950D02*
X132401785Y-97878330D01*
X132401785Y-97878330D02*
X132449404Y-97783092D01*
X132449404Y-97783092D02*
X132449404Y-97592616D01*
X132449404Y-97592616D02*
X132401785Y-97497378D01*
X132401785Y-97497378D02*
X132354166Y-97449759D01*
X132354166Y-97449759D02*
X132258928Y-97402140D01*
X111875595Y-97925950D02*
X112018452Y-97973569D01*
X112018452Y-97973569D02*
X112256547Y-97973569D01*
X112256547Y-97973569D02*
X112351785Y-97925950D01*
X112351785Y-97925950D02*
X112399404Y-97878330D01*
X112399404Y-97878330D02*
X112447023Y-97783092D01*
X112447023Y-97783092D02*
X112447023Y-97687854D01*
X112447023Y-97687854D02*
X112399404Y-97592616D01*
X112399404Y-97592616D02*
X112351785Y-97544997D01*
X112351785Y-97544997D02*
X112256547Y-97497378D01*
X112256547Y-97497378D02*
X112066071Y-97449759D01*
X112066071Y-97449759D02*
X111970833Y-97402140D01*
X111970833Y-97402140D02*
X111923214Y-97354521D01*
X111923214Y-97354521D02*
X111875595Y-97259283D01*
X111875595Y-97259283D02*
X111875595Y-97164045D01*
X111875595Y-97164045D02*
X111923214Y-97068807D01*
X111923214Y-97068807D02*
X111970833Y-97021188D01*
X111970833Y-97021188D02*
X112066071Y-96973569D01*
X112066071Y-96973569D02*
X112304166Y-96973569D01*
X112304166Y-96973569D02*
X112447023Y-97021188D01*
X112780357Y-96973569D02*
X113447023Y-96973569D01*
X113447023Y-96973569D02*
X113018452Y-97973569D01*
X92825595Y-97925950D02*
X92968452Y-97973569D01*
X92968452Y-97973569D02*
X93206547Y-97973569D01*
X93206547Y-97973569D02*
X93301785Y-97925950D01*
X93301785Y-97925950D02*
X93349404Y-97878330D01*
X93349404Y-97878330D02*
X93397023Y-97783092D01*
X93397023Y-97783092D02*
X93397023Y-97687854D01*
X93397023Y-97687854D02*
X93349404Y-97592616D01*
X93349404Y-97592616D02*
X93301785Y-97544997D01*
X93301785Y-97544997D02*
X93206547Y-97497378D01*
X93206547Y-97497378D02*
X93016071Y-97449759D01*
X93016071Y-97449759D02*
X92920833Y-97402140D01*
X92920833Y-97402140D02*
X92873214Y-97354521D01*
X92873214Y-97354521D02*
X92825595Y-97259283D01*
X92825595Y-97259283D02*
X92825595Y-97164045D01*
X92825595Y-97164045D02*
X92873214Y-97068807D01*
X92873214Y-97068807D02*
X92920833Y-97021188D01*
X92920833Y-97021188D02*
X93016071Y-96973569D01*
X93016071Y-96973569D02*
X93254166Y-96973569D01*
X93254166Y-96973569D02*
X93397023Y-97021188D01*
X94254166Y-96973569D02*
X94063690Y-96973569D01*
X94063690Y-96973569D02*
X93968452Y-97021188D01*
X93968452Y-97021188D02*
X93920833Y-97068807D01*
X93920833Y-97068807D02*
X93825595Y-97211664D01*
X93825595Y-97211664D02*
X93777976Y-97402140D01*
X93777976Y-97402140D02*
X93777976Y-97783092D01*
X93777976Y-97783092D02*
X93825595Y-97878330D01*
X93825595Y-97878330D02*
X93873214Y-97925950D01*
X93873214Y-97925950D02*
X93968452Y-97973569D01*
X93968452Y-97973569D02*
X94158928Y-97973569D01*
X94158928Y-97973569D02*
X94254166Y-97925950D01*
X94254166Y-97925950D02*
X94301785Y-97878330D01*
X94301785Y-97878330D02*
X94349404Y-97783092D01*
X94349404Y-97783092D02*
X94349404Y-97544997D01*
X94349404Y-97544997D02*
X94301785Y-97449759D01*
X94301785Y-97449759D02*
X94254166Y-97402140D01*
X94254166Y-97402140D02*
X94158928Y-97354521D01*
X94158928Y-97354521D02*
X93968452Y-97354521D01*
X93968452Y-97354521D02*
X93873214Y-97402140D01*
X93873214Y-97402140D02*
X93825595Y-97449759D01*
X93825595Y-97449759D02*
X93777976Y-97544997D01*
X73775595Y-97925950D02*
X73918452Y-97973569D01*
X73918452Y-97973569D02*
X74156547Y-97973569D01*
X74156547Y-97973569D02*
X74251785Y-97925950D01*
X74251785Y-97925950D02*
X74299404Y-97878330D01*
X74299404Y-97878330D02*
X74347023Y-97783092D01*
X74347023Y-97783092D02*
X74347023Y-97687854D01*
X74347023Y-97687854D02*
X74299404Y-97592616D01*
X74299404Y-97592616D02*
X74251785Y-97544997D01*
X74251785Y-97544997D02*
X74156547Y-97497378D01*
X74156547Y-97497378D02*
X73966071Y-97449759D01*
X73966071Y-97449759D02*
X73870833Y-97402140D01*
X73870833Y-97402140D02*
X73823214Y-97354521D01*
X73823214Y-97354521D02*
X73775595Y-97259283D01*
X73775595Y-97259283D02*
X73775595Y-97164045D01*
X73775595Y-97164045D02*
X73823214Y-97068807D01*
X73823214Y-97068807D02*
X73870833Y-97021188D01*
X73870833Y-97021188D02*
X73966071Y-96973569D01*
X73966071Y-96973569D02*
X74204166Y-96973569D01*
X74204166Y-96973569D02*
X74347023Y-97021188D01*
X75251785Y-96973569D02*
X74775595Y-96973569D01*
X74775595Y-96973569D02*
X74727976Y-97449759D01*
X74727976Y-97449759D02*
X74775595Y-97402140D01*
X74775595Y-97402140D02*
X74870833Y-97354521D01*
X74870833Y-97354521D02*
X75108928Y-97354521D01*
X75108928Y-97354521D02*
X75204166Y-97402140D01*
X75204166Y-97402140D02*
X75251785Y-97449759D01*
X75251785Y-97449759D02*
X75299404Y-97544997D01*
X75299404Y-97544997D02*
X75299404Y-97783092D01*
X75299404Y-97783092D02*
X75251785Y-97878330D01*
X75251785Y-97878330D02*
X75204166Y-97925950D01*
X75204166Y-97925950D02*
X75108928Y-97973569D01*
X75108928Y-97973569D02*
X74870833Y-97973569D01*
X74870833Y-97973569D02*
X74775595Y-97925950D01*
X74775595Y-97925950D02*
X74727976Y-97878330D01*
X130925595Y-78875950D02*
X131068452Y-78923569D01*
X131068452Y-78923569D02*
X131306547Y-78923569D01*
X131306547Y-78923569D02*
X131401785Y-78875950D01*
X131401785Y-78875950D02*
X131449404Y-78828330D01*
X131449404Y-78828330D02*
X131497023Y-78733092D01*
X131497023Y-78733092D02*
X131497023Y-78637854D01*
X131497023Y-78637854D02*
X131449404Y-78542616D01*
X131449404Y-78542616D02*
X131401785Y-78494997D01*
X131401785Y-78494997D02*
X131306547Y-78447378D01*
X131306547Y-78447378D02*
X131116071Y-78399759D01*
X131116071Y-78399759D02*
X131020833Y-78352140D01*
X131020833Y-78352140D02*
X130973214Y-78304521D01*
X130973214Y-78304521D02*
X130925595Y-78209283D01*
X130925595Y-78209283D02*
X130925595Y-78114045D01*
X130925595Y-78114045D02*
X130973214Y-78018807D01*
X130973214Y-78018807D02*
X131020833Y-77971188D01*
X131020833Y-77971188D02*
X131116071Y-77923569D01*
X131116071Y-77923569D02*
X131354166Y-77923569D01*
X131354166Y-77923569D02*
X131497023Y-77971188D01*
X132354166Y-78256902D02*
X132354166Y-78923569D01*
X132116071Y-77875950D02*
X131877976Y-78590235D01*
X131877976Y-78590235D02*
X132497023Y-78590235D01*
X111875595Y-78875950D02*
X112018452Y-78923569D01*
X112018452Y-78923569D02*
X112256547Y-78923569D01*
X112256547Y-78923569D02*
X112351785Y-78875950D01*
X112351785Y-78875950D02*
X112399404Y-78828330D01*
X112399404Y-78828330D02*
X112447023Y-78733092D01*
X112447023Y-78733092D02*
X112447023Y-78637854D01*
X112447023Y-78637854D02*
X112399404Y-78542616D01*
X112399404Y-78542616D02*
X112351785Y-78494997D01*
X112351785Y-78494997D02*
X112256547Y-78447378D01*
X112256547Y-78447378D02*
X112066071Y-78399759D01*
X112066071Y-78399759D02*
X111970833Y-78352140D01*
X111970833Y-78352140D02*
X111923214Y-78304521D01*
X111923214Y-78304521D02*
X111875595Y-78209283D01*
X111875595Y-78209283D02*
X111875595Y-78114045D01*
X111875595Y-78114045D02*
X111923214Y-78018807D01*
X111923214Y-78018807D02*
X111970833Y-77971188D01*
X111970833Y-77971188D02*
X112066071Y-77923569D01*
X112066071Y-77923569D02*
X112304166Y-77923569D01*
X112304166Y-77923569D02*
X112447023Y-77971188D01*
X112780357Y-77923569D02*
X113399404Y-77923569D01*
X113399404Y-77923569D02*
X113066071Y-78304521D01*
X113066071Y-78304521D02*
X113208928Y-78304521D01*
X113208928Y-78304521D02*
X113304166Y-78352140D01*
X113304166Y-78352140D02*
X113351785Y-78399759D01*
X113351785Y-78399759D02*
X113399404Y-78494997D01*
X113399404Y-78494997D02*
X113399404Y-78733092D01*
X113399404Y-78733092D02*
X113351785Y-78828330D01*
X113351785Y-78828330D02*
X113304166Y-78875950D01*
X113304166Y-78875950D02*
X113208928Y-78923569D01*
X113208928Y-78923569D02*
X112923214Y-78923569D01*
X112923214Y-78923569D02*
X112827976Y-78875950D01*
X112827976Y-78875950D02*
X112780357Y-78828330D01*
X92825595Y-78875950D02*
X92968452Y-78923569D01*
X92968452Y-78923569D02*
X93206547Y-78923569D01*
X93206547Y-78923569D02*
X93301785Y-78875950D01*
X93301785Y-78875950D02*
X93349404Y-78828330D01*
X93349404Y-78828330D02*
X93397023Y-78733092D01*
X93397023Y-78733092D02*
X93397023Y-78637854D01*
X93397023Y-78637854D02*
X93349404Y-78542616D01*
X93349404Y-78542616D02*
X93301785Y-78494997D01*
X93301785Y-78494997D02*
X93206547Y-78447378D01*
X93206547Y-78447378D02*
X93016071Y-78399759D01*
X93016071Y-78399759D02*
X92920833Y-78352140D01*
X92920833Y-78352140D02*
X92873214Y-78304521D01*
X92873214Y-78304521D02*
X92825595Y-78209283D01*
X92825595Y-78209283D02*
X92825595Y-78114045D01*
X92825595Y-78114045D02*
X92873214Y-78018807D01*
X92873214Y-78018807D02*
X92920833Y-77971188D01*
X92920833Y-77971188D02*
X93016071Y-77923569D01*
X93016071Y-77923569D02*
X93254166Y-77923569D01*
X93254166Y-77923569D02*
X93397023Y-77971188D01*
X93777976Y-78018807D02*
X93825595Y-77971188D01*
X93825595Y-77971188D02*
X93920833Y-77923569D01*
X93920833Y-77923569D02*
X94158928Y-77923569D01*
X94158928Y-77923569D02*
X94254166Y-77971188D01*
X94254166Y-77971188D02*
X94301785Y-78018807D01*
X94301785Y-78018807D02*
X94349404Y-78114045D01*
X94349404Y-78114045D02*
X94349404Y-78209283D01*
X94349404Y-78209283D02*
X94301785Y-78352140D01*
X94301785Y-78352140D02*
X93730357Y-78923569D01*
X93730357Y-78923569D02*
X94349404Y-78923569D01*
D11*
%TO.C,S17*%
X76962500Y-155568750D02*
X76962500Y-169768750D01*
X76962500Y-169768750D02*
X91162500Y-169768750D01*
X91162500Y-169768750D02*
X91162500Y-155568750D01*
X91162500Y-155568750D02*
X76962500Y-155568750D01*
%TO.C,S16*%
X124587500Y-146043750D02*
X124587500Y-160243750D01*
X124587500Y-160243750D02*
X138787500Y-160243750D01*
X138787500Y-160243750D02*
X138787500Y-146043750D01*
X138787500Y-146043750D02*
X124587500Y-146043750D01*
%TO.C,S1*%
X81637500Y-79368750D02*
X67437500Y-79368750D01*
X81637500Y-93568750D02*
X81637500Y-79368750D01*
X67437500Y-93568750D02*
X81637500Y-93568750D01*
X67437500Y-79368750D02*
X67437500Y-93568750D01*
D12*
%TO.C,U1*%
X61043750Y-75931250D02*
X61043750Y-36681250D01*
X61043750Y-34181250D02*
X61043750Y-31931250D01*
X61043750Y-31931250D02*
X145043750Y-31931250D01*
X145043750Y-31931250D02*
X145043750Y-34431250D01*
X145043750Y-36931250D02*
X145043750Y-75931250D01*
X145043750Y-75931250D02*
X61043750Y-75931250D01*
X64793750Y-34181250D02*
G75*
G02*
X64793750Y-36681250I0J-1250000D01*
G01*
X141293750Y-36931250D02*
G75*
G02*
X141293750Y-34431250I0J1250000D01*
G01*
X64793750Y-34181250D02*
X61043750Y-34181250D01*
X64793750Y-36681250D02*
X61043750Y-36681250D01*
X141293750Y-34431250D02*
X145043750Y-34431250D01*
X141293750Y-36931250D02*
X145043750Y-36931250D01*
X70243750Y-45931250D02*
X70243750Y-61931250D01*
X70243750Y-61931250D02*
X135843750Y-61931250D01*
X135843750Y-61931250D02*
X135843750Y-45931250D01*
X135843750Y-45931250D02*
X70243750Y-45931250D01*
X142543750Y-72181250D02*
G75*
G02*
X140043750Y-72181250I-1250000J0D01*
G01*
X140043750Y-72181250D02*
G75*
G02*
X142543750Y-72181250I1250000J0D01*
G01*
X66043750Y-72181250D02*
G75*
G02*
X63543750Y-72181250I-1250000J0D01*
G01*
X63543750Y-72181250D02*
G75*
G02*
X66043750Y-72181250I1250000J0D01*
G01*
D11*
%TO.C,S18*%
X105537500Y-155568750D02*
X105537500Y-169768750D01*
X105537500Y-169768750D02*
X119737500Y-169768750D01*
X119737500Y-169768750D02*
X119737500Y-155568750D01*
X119737500Y-155568750D02*
X105537500Y-155568750D01*
%TO.C,S15*%
X105537500Y-136518750D02*
X105537500Y-150718750D01*
X105537500Y-150718750D02*
X119737500Y-150718750D01*
X119737500Y-150718750D02*
X119737500Y-136518750D01*
X119737500Y-136518750D02*
X105537500Y-136518750D01*
%TO.C,S14*%
X86487500Y-136518750D02*
X86487500Y-150718750D01*
X86487500Y-150718750D02*
X100687500Y-150718750D01*
X100687500Y-150718750D02*
X100687500Y-136518750D01*
X100687500Y-136518750D02*
X86487500Y-136518750D01*
%TO.C,S13*%
X67437500Y-136518750D02*
X67437500Y-150718750D01*
X67437500Y-150718750D02*
X81637500Y-150718750D01*
X81637500Y-150718750D02*
X81637500Y-136518750D01*
X81637500Y-136518750D02*
X67437500Y-136518750D01*
%TO.C,S12*%
X124587500Y-117468750D02*
X124587500Y-131668750D01*
X124587500Y-131668750D02*
X138787500Y-131668750D01*
X138787500Y-131668750D02*
X138787500Y-117468750D01*
X138787500Y-117468750D02*
X124587500Y-117468750D01*
%TO.C,S11*%
X105537500Y-117468750D02*
X105537500Y-131668750D01*
X105537500Y-131668750D02*
X119737500Y-131668750D01*
X119737500Y-131668750D02*
X119737500Y-117468750D01*
X119737500Y-117468750D02*
X105537500Y-117468750D01*
%TO.C,S10*%
X86487500Y-117468750D02*
X86487500Y-131668750D01*
X86487500Y-131668750D02*
X100687500Y-131668750D01*
X100687500Y-131668750D02*
X100687500Y-117468750D01*
X100687500Y-117468750D02*
X86487500Y-117468750D01*
%TO.C,S9*%
X67437500Y-117468750D02*
X67437500Y-131668750D01*
X67437500Y-131668750D02*
X81637500Y-131668750D01*
X81637500Y-131668750D02*
X81637500Y-117468750D01*
X81637500Y-117468750D02*
X67437500Y-117468750D01*
%TO.C,S8*%
X124587500Y-98418750D02*
X124587500Y-112618750D01*
X124587500Y-112618750D02*
X138787500Y-112618750D01*
X138787500Y-112618750D02*
X138787500Y-98418750D01*
X138787500Y-98418750D02*
X124587500Y-98418750D01*
%TO.C,S7*%
X105537500Y-98418750D02*
X105537500Y-112618750D01*
X105537500Y-112618750D02*
X119737500Y-112618750D01*
X119737500Y-112618750D02*
X119737500Y-98418750D01*
X119737500Y-98418750D02*
X105537500Y-98418750D01*
%TO.C,S6*%
X86487500Y-98418750D02*
X86487500Y-112618750D01*
X86487500Y-112618750D02*
X100687500Y-112618750D01*
X100687500Y-112618750D02*
X100687500Y-98418750D01*
X100687500Y-98418750D02*
X86487500Y-98418750D01*
%TO.C,S5*%
X67437500Y-98418750D02*
X67437500Y-112618750D01*
X67437500Y-112618750D02*
X81637500Y-112618750D01*
X81637500Y-112618750D02*
X81637500Y-98418750D01*
X81637500Y-98418750D02*
X67437500Y-98418750D01*
%TO.C,S4*%
X124587500Y-79368750D02*
X124587500Y-93568750D01*
X124587500Y-93568750D02*
X138787500Y-93568750D01*
X138787500Y-93568750D02*
X138787500Y-79368750D01*
X138787500Y-79368750D02*
X124587500Y-79368750D01*
%TO.C,S3*%
X105537500Y-79368750D02*
X105537500Y-93568750D01*
X105537500Y-93568750D02*
X119737500Y-93568750D01*
X119737500Y-93568750D02*
X119737500Y-79368750D01*
X119737500Y-79368750D02*
X105537500Y-79368750D01*
%TO.C,S2*%
X86487500Y-79368750D02*
X86487500Y-93568750D01*
X86487500Y-93568750D02*
X100687500Y-93568750D01*
X100687500Y-93568750D02*
X100687500Y-79368750D01*
X100687500Y-79368750D02*
X86487500Y-79368750D01*
%TD*%
M02*
