%TF.GenerationSoftware,KiCad,Pcbnew,9.0.2*%
%TF.CreationDate,2025-05-15T02:22:54+10:00*%
%TF.ProjectId,Calculator,43616c63-756c-4617-946f-722e6b696361,rev?*%
%TF.SameCoordinates,Original*%
%TF.FileFunction,Soldermask,Bot*%
%TF.FilePolarity,Negative*%
%FSLAX46Y46*%
G04 Gerber Fmt 4.6, Leading zero omitted, Abs format (unit mm)*
G04 Created by KiCad (PCBNEW 9.0.2) date 2025-05-15 02:22:54*
%MOMM*%
%LPD*%
G01*
G04 APERTURE LIST*
%ADD10C,2.700000*%
%ADD11C,3.048000*%
%ADD12C,3.987800*%
%ADD13C,1.600000*%
%ADD14R,1.600000X1.600000*%
%ADD15O,1.600000X1.600000*%
%ADD16C,2.500000*%
%ADD17C,4.000000*%
%ADD18C,1.750000*%
%ADD19C,1.728000*%
%ADD20R,1.700000X1.700000*%
%ADD21C,1.700000*%
G04 APERTURE END LIST*
D10*
%TO.C,REF\u002A\u002A*%
X64000000Y-171000000D03*
%TD*%
%TO.C,REF\u002A\u002A*%
X142500000Y-171000000D03*
%TD*%
%TO.C,REF\u002A\u002A*%
X64000000Y-35500000D03*
%TD*%
%TO.C,REF\u002A\u002A*%
X142500000Y-35500000D03*
%TD*%
D11*
%TO.C,REF\u002A\u002A*%
X72124500Y-155683750D03*
X96000500Y-155683750D03*
D12*
X72124500Y-170893750D03*
X96000500Y-170893750D03*
%TD*%
D13*
%TO.C,R1*%
X74537500Y-58370000D03*
X74537500Y-43130000D03*
%TD*%
%TO.C,R2*%
X67393750Y-43130000D03*
X67393750Y-58370000D03*
%TD*%
D14*
%TO.C,D14*%
X103112500Y-145047500D03*
D15*
X103112500Y-137427500D03*
%TD*%
%TO.C,D9*%
X84062500Y-118377500D03*
D14*
X84062500Y-125997500D03*
%TD*%
D16*
%TO.C,S17*%
X80252500Y-160128750D03*
X86602500Y-157588750D03*
D17*
X84062500Y-162668750D03*
D18*
X78982500Y-162668750D03*
X89142500Y-162668750D03*
%TD*%
D16*
%TO.C,S16*%
X127877500Y-150603750D03*
X134227500Y-148063750D03*
D17*
X131687500Y-153143750D03*
D18*
X126607500Y-153143750D03*
X136767500Y-153143750D03*
%TD*%
%TO.C,S1*%
X79617500Y-86468750D03*
X69457500Y-86468750D03*
D17*
X74537500Y-86468750D03*
D16*
X77077500Y-81388750D03*
X70727500Y-83928750D03*
%TD*%
D19*
%TO.C,U1*%
X71203750Y-72181250D03*
X73743750Y-72181250D03*
X76283750Y-72181250D03*
X78823750Y-72181250D03*
X81363750Y-72181250D03*
X83903750Y-72181250D03*
X86443750Y-72181250D03*
X88983750Y-72181250D03*
X91523750Y-72181250D03*
X94063750Y-72181250D03*
X96603750Y-72181250D03*
X99143750Y-72181250D03*
X101683750Y-72181250D03*
X104223750Y-72181250D03*
X106763750Y-72181250D03*
X109303750Y-72181250D03*
%TD*%
D16*
%TO.C,S18*%
X108827500Y-160128750D03*
X115177500Y-157588750D03*
D17*
X112637500Y-162668750D03*
D18*
X107557500Y-162668750D03*
X117717500Y-162668750D03*
%TD*%
D16*
%TO.C,S15*%
X108827500Y-141078750D03*
X115177500Y-138538750D03*
D17*
X112637500Y-143618750D03*
D18*
X107557500Y-143618750D03*
X117717500Y-143618750D03*
%TD*%
D16*
%TO.C,S14*%
X89777500Y-141078750D03*
X96127500Y-138538750D03*
D17*
X93587500Y-143618750D03*
D18*
X88507500Y-143618750D03*
X98667500Y-143618750D03*
%TD*%
D16*
%TO.C,S13*%
X70727500Y-141078750D03*
X77077500Y-138538750D03*
D17*
X74537500Y-143618750D03*
D18*
X69457500Y-143618750D03*
X79617500Y-143618750D03*
%TD*%
D16*
%TO.C,S12*%
X127877500Y-122028750D03*
X134227500Y-119488750D03*
D17*
X131687500Y-124568750D03*
D18*
X126607500Y-124568750D03*
X136767500Y-124568750D03*
%TD*%
D16*
%TO.C,S11*%
X108827500Y-122028750D03*
X115177500Y-119488750D03*
D17*
X112637500Y-124568750D03*
D18*
X107557500Y-124568750D03*
X117717500Y-124568750D03*
%TD*%
D16*
%TO.C,S10*%
X89777500Y-122028750D03*
X96127500Y-119488750D03*
D17*
X93587500Y-124568750D03*
D18*
X88507500Y-124568750D03*
X98667500Y-124568750D03*
%TD*%
D16*
%TO.C,S9*%
X70727500Y-122028750D03*
X77077500Y-119488750D03*
D17*
X74537500Y-124568750D03*
D18*
X69457500Y-124568750D03*
X79617500Y-124568750D03*
%TD*%
D16*
%TO.C,S8*%
X127877500Y-102978750D03*
X134227500Y-100438750D03*
D17*
X131687500Y-105518750D03*
D18*
X126607500Y-105518750D03*
X136767500Y-105518750D03*
%TD*%
D16*
%TO.C,S7*%
X108827500Y-102978750D03*
X115177500Y-100438750D03*
D17*
X112637500Y-105518750D03*
D18*
X107557500Y-105518750D03*
X117717500Y-105518750D03*
%TD*%
D16*
%TO.C,S6*%
X89777500Y-102978750D03*
X96127500Y-100438750D03*
D17*
X93587500Y-105518750D03*
D18*
X88507500Y-105518750D03*
X98667500Y-105518750D03*
%TD*%
D16*
%TO.C,S5*%
X70727500Y-102978750D03*
X77077500Y-100438750D03*
D17*
X74537500Y-105518750D03*
D18*
X69457500Y-105518750D03*
X79617500Y-105518750D03*
%TD*%
D16*
%TO.C,S4*%
X127877500Y-83928750D03*
X134227500Y-81388750D03*
D17*
X131687500Y-86468750D03*
D18*
X126607500Y-86468750D03*
X136767500Y-86468750D03*
%TD*%
D16*
%TO.C,S3*%
X108827500Y-83928750D03*
X115177500Y-81388750D03*
D17*
X112637500Y-86468750D03*
D18*
X107557500Y-86468750D03*
X117717500Y-86468750D03*
%TD*%
D16*
%TO.C,S2*%
X89777500Y-83928750D03*
X96127500Y-81388750D03*
D17*
X93587500Y-86468750D03*
D18*
X88507500Y-86468750D03*
X98667500Y-86468750D03*
%TD*%
D20*
%TO.C,J1*%
X91206250Y-34081250D03*
D21*
X88666250Y-34081250D03*
%TD*%
D14*
%TO.C,D18*%
X122162500Y-160898375D03*
D15*
X122162500Y-153278375D03*
%TD*%
D14*
%TO.C,D17*%
X102294625Y-164097500D03*
D15*
X102294625Y-156477500D03*
%TD*%
D14*
%TO.C,D16*%
X141212500Y-154572500D03*
D15*
X141212500Y-146952500D03*
%TD*%
D14*
%TO.C,D15*%
X122162500Y-137085875D03*
D15*
X122162500Y-129465875D03*
%TD*%
D14*
%TO.C,D13*%
X84062500Y-145047500D03*
D15*
X84062500Y-137427500D03*
%TD*%
D14*
%TO.C,D12*%
X141212500Y-125997500D03*
D15*
X141212500Y-118377500D03*
%TD*%
D14*
%TO.C,D11*%
X122162500Y-125997500D03*
D15*
X122162500Y-118377500D03*
%TD*%
D14*
%TO.C,D10*%
X103112500Y-125997500D03*
D15*
X103112500Y-118377500D03*
%TD*%
D14*
%TO.C,D8*%
X141212500Y-106947500D03*
D15*
X141212500Y-99327500D03*
%TD*%
D14*
%TO.C,D7*%
X122162500Y-106947500D03*
D15*
X122162500Y-99327500D03*
%TD*%
D14*
%TO.C,D6*%
X103112500Y-106947500D03*
D15*
X103112500Y-99327500D03*
%TD*%
D14*
%TO.C,D5*%
X84062500Y-106947500D03*
D15*
X84062500Y-99327500D03*
%TD*%
D14*
%TO.C,D4*%
X141212500Y-87897500D03*
D15*
X141212500Y-80277500D03*
%TD*%
D14*
%TO.C,D3*%
X122162500Y-87897500D03*
D15*
X122162500Y-80277500D03*
%TD*%
D14*
%TO.C,D2*%
X103112500Y-87897500D03*
D15*
X103112500Y-80277500D03*
%TD*%
D14*
%TO.C,D1*%
X84062500Y-87897500D03*
D15*
X84062500Y-80277500D03*
%TD*%
D14*
%TO.C,A2*%
X129306250Y-55978750D03*
D15*
X126766250Y-55978750D03*
X124226250Y-55978750D03*
X121686250Y-55978750D03*
X119146250Y-55978750D03*
X116606250Y-55978750D03*
X114066250Y-55978750D03*
X111526250Y-55978750D03*
X108986250Y-55978750D03*
X106446250Y-55978750D03*
X103906250Y-55978750D03*
X101366250Y-55978750D03*
X98826250Y-55978750D03*
X96286250Y-55978750D03*
X93746250Y-55978750D03*
X93746250Y-40738750D03*
X96286250Y-40738750D03*
X98826250Y-40738750D03*
X101366250Y-40738750D03*
X103906250Y-40738750D03*
X106446250Y-40738750D03*
X108986250Y-40738750D03*
X111526250Y-40738750D03*
X114066250Y-40738750D03*
X116606250Y-40738750D03*
X119146250Y-40738750D03*
X121686250Y-40738750D03*
X124226250Y-40738750D03*
X126766250Y-40738750D03*
X129306250Y-40738750D03*
%TD*%
D11*
%TO.C,REF\u002A\u002A*%
X124702500Y-165081750D03*
X124702500Y-141205750D03*
D12*
X139912500Y-165081750D03*
X139912500Y-141205750D03*
%TD*%
M02*
