%TF.GenerationSoftware,KiCad,Pcbnew,9.0.2*%
%TF.CreationDate,2025-05-15T02:22:54+10:00*%
%TF.ProjectId,Calculator,43616c63-756c-4617-946f-722e6b696361,rev?*%
%TF.SameCoordinates,Original*%
%TF.FileFunction,Copper,L2,Bot*%
%TF.FilePolarity,Positive*%
%FSLAX46Y46*%
G04 Gerber Fmt 4.6, Leading zero omitted, Abs format (unit mm)*
G04 Created by KiCad (PCBNEW 9.0.2) date 2025-05-15 02:22:54*
%MOMM*%
%LPD*%
G01*
G04 APERTURE LIST*
%TA.AperFunction,ComponentPad*%
%ADD10C,1.600000*%
%TD*%
%TA.AperFunction,ComponentPad*%
%ADD11R,1.600000X1.600000*%
%TD*%
%TA.AperFunction,ComponentPad*%
%ADD12O,1.600000X1.600000*%
%TD*%
%TA.AperFunction,ComponentPad*%
%ADD13C,2.500000*%
%TD*%
%TA.AperFunction,ComponentPad*%
%ADD14C,1.524000*%
%TD*%
%TA.AperFunction,ComponentPad*%
%ADD15R,1.700000X1.700000*%
%TD*%
%TA.AperFunction,ComponentPad*%
%ADD16C,1.700000*%
%TD*%
%TA.AperFunction,ViaPad*%
%ADD17C,0.600000*%
%TD*%
%TA.AperFunction,Conductor*%
%ADD18C,0.200000*%
%TD*%
G04 APERTURE END LIST*
D10*
%TO.P,R1,2*%
%TO.N,Net-(A2-+5V)*%
X74537500Y-58370000D03*
%TO.P,R1,1*%
%TO.N,Net-(U1-A)*%
X74537500Y-43130000D03*
%TD*%
%TO.P,R2,2*%
%TO.N,Net-(A2-A3)*%
X67393750Y-43130000D03*
%TO.P,R2,1*%
%TO.N,Net-(U1-K)*%
X67393750Y-58370000D03*
%TD*%
D11*
%TO.P,D14,1,K*%
%TO.N,Row 3*%
X103112500Y-145047500D03*
D12*
%TO.P,D14,2,A*%
%TO.N,Net-(D14-A)*%
X103112500Y-137427500D03*
%TD*%
%TO.P,D9,2,A*%
%TO.N,Net-(D9-A)*%
X84062500Y-118377500D03*
D11*
%TO.P,D9,1,K*%
%TO.N,Row 2*%
X84062500Y-125997500D03*
%TD*%
D13*
%TO.P,S17,1,1*%
%TO.N,Col 0*%
X80252500Y-160128750D03*
%TO.P,S17,2,2*%
%TO.N,Net-(D17-A)*%
X86602500Y-157588750D03*
%TD*%
%TO.P,S16,1,1*%
%TO.N,Col 3*%
X127877500Y-150603750D03*
%TO.P,S16,2,2*%
%TO.N,Net-(D16-A)*%
X134227500Y-148063750D03*
%TD*%
%TO.P,S1,2,2*%
%TO.N,Net-(D1-A)*%
X77077500Y-81388750D03*
%TO.P,S1,1,1*%
%TO.N,Col 0*%
X70727500Y-83928750D03*
%TD*%
D14*
%TO.P,U1,1,VSS*%
%TO.N,Net-(U1-K)*%
X71203750Y-72181250D03*
%TO.P,U1,2,VDD*%
%TO.N,Net-(A2-+5V)*%
X73743750Y-72181250D03*
%TO.P,U1,3,VO*%
%TO.N,unconnected-(U1-VO-Pad3)*%
X76283750Y-72181250D03*
%TO.P,U1,4,RS*%
%TO.N,Net-(A2-SDA{slash}A4)*%
X78823750Y-72181250D03*
%TO.P,U1,5,R/W*%
%TO.N,Net-(U1-K)*%
X81363750Y-72181250D03*
%TO.P,U1,6,E*%
%TO.N,Net-(A2-D9)*%
X83903750Y-72181250D03*
%TO.P,U1,7,DB0*%
%TO.N,unconnected-(U1-DB0-Pad7)*%
X86443750Y-72181250D03*
%TO.P,U1,8,DB1*%
%TO.N,unconnected-(U1-DB1-Pad8)*%
X88983750Y-72181250D03*
%TO.P,U1,9,DB2*%
%TO.N,unconnected-(U1-DB2-Pad9)*%
X91523750Y-72181250D03*
%TO.P,U1,10,DB3*%
%TO.N,unconnected-(U1-DB3-Pad10)*%
X94063750Y-72181250D03*
%TO.P,U1,11,DB4*%
%TO.N,Net-(A2-D10)*%
X96603750Y-72181250D03*
%TO.P,U1,12,DB5*%
%TO.N,Net-(A2-A0)*%
X99143750Y-72181250D03*
%TO.P,U1,13,DB6*%
%TO.N,Net-(A2-A1)*%
X101683750Y-72181250D03*
%TO.P,U1,14,DB7*%
%TO.N,Net-(A2-A2)*%
X104223750Y-72181250D03*
%TO.P,U1,15,A*%
%TO.N,Net-(U1-A)*%
X106763750Y-72181250D03*
%TO.P,U1,16,K*%
%TO.N,Net-(U1-K)*%
X109303750Y-72181250D03*
%TD*%
D13*
%TO.P,S18,1,1*%
%TO.N,Col 2*%
X108827500Y-160128750D03*
%TO.P,S18,2,2*%
%TO.N,Net-(D18-A)*%
X115177500Y-157588750D03*
%TD*%
%TO.P,S15,1,1*%
%TO.N,Col 2*%
X108827500Y-141078750D03*
%TO.P,S15,2,2*%
%TO.N,Net-(D15-A)*%
X115177500Y-138538750D03*
%TD*%
%TO.P,S14,1,1*%
%TO.N,Col 1*%
X89777500Y-141078750D03*
%TO.P,S14,2,2*%
%TO.N,Net-(D14-A)*%
X96127500Y-138538750D03*
%TD*%
%TO.P,S13,1,1*%
%TO.N,Col 0*%
X70727500Y-141078750D03*
%TO.P,S13,2,2*%
%TO.N,Net-(D13-A)*%
X77077500Y-138538750D03*
%TD*%
%TO.P,S12,1,1*%
%TO.N,Col 3*%
X127877500Y-122028750D03*
%TO.P,S12,2,2*%
%TO.N,Net-(D12-A)*%
X134227500Y-119488750D03*
%TD*%
%TO.P,S11,1,1*%
%TO.N,Col 2*%
X108827500Y-122028750D03*
%TO.P,S11,2,2*%
%TO.N,Net-(D11-A)*%
X115177500Y-119488750D03*
%TD*%
%TO.P,S10,1,1*%
%TO.N,Col 1*%
X89777500Y-122028750D03*
%TO.P,S10,2,2*%
%TO.N,Net-(D10-A)*%
X96127500Y-119488750D03*
%TD*%
%TO.P,S9,1,1*%
%TO.N,Col 0*%
X70727500Y-122028750D03*
%TO.P,S9,2,2*%
%TO.N,Net-(D9-A)*%
X77077500Y-119488750D03*
%TD*%
%TO.P,S8,1,1*%
%TO.N,Col 3*%
X127877500Y-102978750D03*
%TO.P,S8,2,2*%
%TO.N,Net-(D8-A)*%
X134227500Y-100438750D03*
%TD*%
%TO.P,S7,1,1*%
%TO.N,Col 2*%
X108827500Y-102978750D03*
%TO.P,S7,2,2*%
%TO.N,Net-(D7-A)*%
X115177500Y-100438750D03*
%TD*%
%TO.P,S6,1,1*%
%TO.N,Col 1*%
X89777500Y-102978750D03*
%TO.P,S6,2,2*%
%TO.N,Net-(D6-A)*%
X96127500Y-100438750D03*
%TD*%
%TO.P,S5,1,1*%
%TO.N,Col 0*%
X70727500Y-102978750D03*
%TO.P,S5,2,2*%
%TO.N,Net-(D5-A)*%
X77077500Y-100438750D03*
%TD*%
%TO.P,S4,1,1*%
%TO.N,Col 3*%
X127877500Y-83928750D03*
%TO.P,S4,2,2*%
%TO.N,Net-(D4-A)*%
X134227500Y-81388750D03*
%TD*%
%TO.P,S3,1,1*%
%TO.N,Col 2*%
X108827500Y-83928750D03*
%TO.P,S3,2,2*%
%TO.N,Net-(D3-A)*%
X115177500Y-81388750D03*
%TD*%
%TO.P,S2,1,1*%
%TO.N,Col 1*%
X89777500Y-83928750D03*
%TO.P,S2,2,2*%
%TO.N,Net-(D2-A)*%
X96127500Y-81388750D03*
%TD*%
D15*
%TO.P,J1,1,Pin_1*%
%TO.N,Net-(A2-+5V)*%
X91206250Y-34081250D03*
D16*
%TO.P,J1,2,Pin_2*%
%TO.N,Net-(A2-A3)*%
X88666250Y-34081250D03*
%TD*%
D11*
%TO.P,D18,1,K*%
%TO.N,Row 4*%
X122162500Y-160898375D03*
D12*
%TO.P,D18,2,A*%
%TO.N,Net-(D18-A)*%
X122162500Y-153278375D03*
%TD*%
D11*
%TO.P,D17,1,K*%
%TO.N,Row 4*%
X102294625Y-164097500D03*
D12*
%TO.P,D17,2,A*%
%TO.N,Net-(D17-A)*%
X102294625Y-156477500D03*
%TD*%
D11*
%TO.P,D16,1,K*%
%TO.N,Row 3*%
X141212500Y-154572500D03*
D12*
%TO.P,D16,2,A*%
%TO.N,Net-(D16-A)*%
X141212500Y-146952500D03*
%TD*%
D11*
%TO.P,D15,1,K*%
%TO.N,Row 3*%
X122162500Y-137085875D03*
D12*
%TO.P,D15,2,A*%
%TO.N,Net-(D15-A)*%
X122162500Y-129465875D03*
%TD*%
D11*
%TO.P,D13,1,K*%
%TO.N,Row 3*%
X84062500Y-145047500D03*
D12*
%TO.P,D13,2,A*%
%TO.N,Net-(D13-A)*%
X84062500Y-137427500D03*
%TD*%
D11*
%TO.P,D12,1,K*%
%TO.N,Row 2*%
X141212500Y-125997500D03*
D12*
%TO.P,D12,2,A*%
%TO.N,Net-(D12-A)*%
X141212500Y-118377500D03*
%TD*%
D11*
%TO.P,D11,1,K*%
%TO.N,Row 2*%
X122162500Y-125997500D03*
D12*
%TO.P,D11,2,A*%
%TO.N,Net-(D11-A)*%
X122162500Y-118377500D03*
%TD*%
D11*
%TO.P,D10,1,K*%
%TO.N,Row 2*%
X103112500Y-125997500D03*
D12*
%TO.P,D10,2,A*%
%TO.N,Net-(D10-A)*%
X103112500Y-118377500D03*
%TD*%
D11*
%TO.P,D8,1,K*%
%TO.N,Row 1*%
X141212500Y-106947500D03*
D12*
%TO.P,D8,2,A*%
%TO.N,Net-(D8-A)*%
X141212500Y-99327500D03*
%TD*%
D11*
%TO.P,D7,1,K*%
%TO.N,Row 1*%
X122162500Y-106947500D03*
D12*
%TO.P,D7,2,A*%
%TO.N,Net-(D7-A)*%
X122162500Y-99327500D03*
%TD*%
D11*
%TO.P,D6,1,K*%
%TO.N,Row 1*%
X103112500Y-106947500D03*
D12*
%TO.P,D6,2,A*%
%TO.N,Net-(D6-A)*%
X103112500Y-99327500D03*
%TD*%
D11*
%TO.P,D5,1,K*%
%TO.N,Row 1*%
X84062500Y-106947500D03*
D12*
%TO.P,D5,2,A*%
%TO.N,Net-(D5-A)*%
X84062500Y-99327500D03*
%TD*%
D11*
%TO.P,D4,1,K*%
%TO.N,Row 0*%
X141212500Y-87897500D03*
D12*
%TO.P,D4,2,A*%
%TO.N,Net-(D4-A)*%
X141212500Y-80277500D03*
%TD*%
D11*
%TO.P,D3,1,K*%
%TO.N,Row 0*%
X122162500Y-87897500D03*
D12*
%TO.P,D3,2,A*%
%TO.N,Net-(D3-A)*%
X122162500Y-80277500D03*
%TD*%
D11*
%TO.P,D2,1,K*%
%TO.N,Row 0*%
X103112500Y-87897500D03*
D12*
%TO.P,D2,2,A*%
%TO.N,Net-(D2-A)*%
X103112500Y-80277500D03*
%TD*%
D11*
%TO.P,D1,1,K*%
%TO.N,Row 0*%
X84062500Y-87897500D03*
D12*
%TO.P,D1,2,A*%
%TO.N,Net-(D1-A)*%
X84062500Y-80277500D03*
%TD*%
D11*
%TO.P,A2,1,TX1*%
%TO.N,Col 0*%
X129306250Y-55978750D03*
D12*
%TO.P,A2,2,RX1*%
%TO.N,Col 1*%
X126766250Y-55978750D03*
%TO.P,A2,3,~{RESET}*%
%TO.N,unconnected-(A2-~{RESET}-Pad3)*%
X124226250Y-55978750D03*
%TO.P,A2,4,GND*%
%TO.N,Net-(U1-K)*%
X121686250Y-55978750D03*
%TO.P,A2,5,D2*%
%TO.N,Col 2*%
X119146250Y-55978750D03*
%TO.P,A2,6,D3*%
%TO.N,Col 3*%
X116606250Y-55978750D03*
%TO.P,A2,7,D4*%
%TO.N,Row 0*%
X114066250Y-55978750D03*
%TO.P,A2,8,D5*%
%TO.N,Row 1*%
X111526250Y-55978750D03*
%TO.P,A2,9,D6*%
%TO.N,Row 2*%
X108986250Y-55978750D03*
%TO.P,A2,10,D7*%
%TO.N,Row 3*%
X106446250Y-55978750D03*
%TO.P,A2,11,D8*%
%TO.N,Row 4*%
X103906250Y-55978750D03*
%TO.P,A2,12,D9*%
%TO.N,Net-(A2-D9)*%
X101366250Y-55978750D03*
%TO.P,A2,13,D10*%
%TO.N,Net-(A2-D10)*%
X98826250Y-55978750D03*
%TO.P,A2,14,MOSI*%
%TO.N,unconnected-(A2-MOSI-Pad14)*%
X96286250Y-55978750D03*
%TO.P,A2,15,MISO*%
%TO.N,unconnected-(A2-MISO-Pad15)*%
X93746250Y-55978750D03*
%TO.P,A2,16,SCK*%
%TO.N,unconnected-(A2-SCK-Pad16)*%
X93746250Y-40738750D03*
%TO.P,A2,17,3V3*%
%TO.N,unconnected-(A2-3V3-Pad17)*%
X96286250Y-40738750D03*
%TO.P,A2,18,AREF*%
%TO.N,unconnected-(A2-AREF-Pad18)*%
X98826250Y-40738750D03*
%TO.P,A2,19,A0*%
%TO.N,Net-(A2-A0)*%
X101366250Y-40738750D03*
%TO.P,A2,20,A1*%
%TO.N,Net-(A2-A1)*%
X103906250Y-40738750D03*
%TO.P,A2,21,A2*%
%TO.N,Net-(A2-A2)*%
X106446250Y-40738750D03*
%TO.P,A2,22,A3*%
%TO.N,Net-(A2-A3)*%
X108986250Y-40738750D03*
%TO.P,A2,23,SDA/A4*%
%TO.N,Net-(A2-SDA{slash}A4)*%
X111526250Y-40738750D03*
%TO.P,A2,24,SCL/A5*%
%TO.N,unconnected-(A2-SCL{slash}A5-Pad24)*%
X114066250Y-40738750D03*
%TO.P,A2,25,A6*%
%TO.N,unconnected-(A2-A6-Pad25)*%
X116606250Y-40738750D03*
%TO.P,A2,26,A7*%
%TO.N,unconnected-(A2-A7-Pad26)*%
X119146250Y-40738750D03*
%TO.P,A2,27,+5V*%
%TO.N,Net-(A2-+5V)*%
X121686250Y-40738750D03*
%TO.P,A2,28,~{RESET}*%
%TO.N,unconnected-(A2-~{RESET}-Pad28)*%
X124226250Y-40738750D03*
%TO.P,A2,29,GND*%
%TO.N,Net-(U1-K)*%
X126766250Y-40738750D03*
%TO.P,A2,30,VIN*%
%TO.N,unconnected-(A2-VIN-Pad30)*%
X129306250Y-40738750D03*
%TD*%
D17*
%TO.N,Row 1*%
X112637500Y-54277750D03*
%TO.N,Net-(U1-K)*%
X134068750Y-55512500D03*
%TO.N,Net-(A2-+5V)*%
X76918750Y-69800000D03*
%TD*%
D18*
%TO.N,Row 4*%
X122162500Y-160898375D02*
X131076625Y-160898375D01*
X131076625Y-160898375D02*
X138831250Y-153143750D01*
%TO.N,Net-(A2-A3)*%
X69298750Y-41225000D02*
X67393750Y-43130000D01*
X69775000Y-41225000D02*
X69298750Y-41225000D01*
X69775000Y-41225000D02*
X71362250Y-39637750D01*
%TO.N,Row 1*%
X112637500Y-54476750D02*
X112637500Y-54277750D01*
X135981350Y-54476750D02*
X112637500Y-54476750D01*
%TO.N,Net-(A2-+5V)*%
X115028750Y-34081250D02*
X121686250Y-40738750D01*
X91206250Y-34081250D02*
X115028750Y-34081250D01*
%TO.N,Net-(A2-A3)*%
X88666250Y-39479000D02*
X88825000Y-39637750D01*
X88825000Y-39637750D02*
X107885250Y-39637750D01*
X88666250Y-34081250D02*
X88666250Y-39479000D01*
%TO.N,Net-(U1-K)*%
X129306250Y-60275000D02*
X134068750Y-55512500D01*
X125982500Y-60275000D02*
X129306250Y-60275000D01*
X121686250Y-55978750D02*
X125982500Y-60275000D01*
%TO.N,Net-(A2-+5V)*%
X120585250Y-41839750D02*
X121686250Y-40738750D01*
X116488200Y-41839750D02*
X120585250Y-41839750D01*
X102805250Y-55522700D02*
X116488200Y-41839750D01*
X102805250Y-56434800D02*
X102805250Y-55522700D01*
X86884060Y-73244250D02*
X87506750Y-72621560D01*
X78383440Y-73244250D02*
X86884060Y-73244250D01*
X87506750Y-72621560D02*
X87506750Y-71733300D01*
X87506750Y-71733300D02*
X102805250Y-56434800D01*
X77760750Y-72621560D02*
X78383440Y-73244250D01*
X77760750Y-70642000D02*
X77760750Y-72621560D01*
X76918750Y-69800000D02*
X77760750Y-70642000D01*
%TO.N,Net-(A2-A3)*%
X71362250Y-39637750D02*
X88825000Y-39637750D01*
X107885250Y-39637750D02*
X108986250Y-40738750D01*
%TO.N,Net-(A2-SDA{slash}A4)*%
X110425250Y-41839750D02*
X111526250Y-40738750D01*
X106328200Y-41839750D02*
X110425250Y-41839750D01*
X78823750Y-69344200D02*
X106328200Y-41839750D01*
X78823750Y-72181250D02*
X78823750Y-69344200D01*
%TO.N,Net-(A2-D9)*%
X84966750Y-71118250D02*
X86226750Y-71118250D01*
X86226750Y-71118250D02*
X101366250Y-55978750D01*
X83903750Y-72181250D02*
X84966750Y-71118250D01*
%TO.N,Col 3*%
X127877500Y-67250000D02*
X116606250Y-55978750D01*
X127877500Y-83928750D02*
X127877500Y-67250000D01*
%TO.N,Row 0*%
X123263500Y-65176000D02*
X114066250Y-55978750D01*
X122162500Y-87897500D02*
X123263500Y-86796500D01*
X123263500Y-86796500D02*
X123263500Y-65176000D01*
%TO.N,Row 1*%
X139232250Y-104967250D02*
X139232250Y-57727650D01*
X141212500Y-106947500D02*
X139232250Y-104967250D01*
X139232250Y-57727650D02*
X135981350Y-54476750D01*
%TO.N,Row 3*%
X105493750Y-56931250D02*
X106446250Y-55978750D01*
X103112500Y-145047500D02*
X105493750Y-142666250D01*
X105493750Y-142666250D02*
X105493750Y-56931250D01*
%TO.N,Row 2*%
X119781250Y-66773750D02*
X108986250Y-55978750D01*
X119781250Y-123616250D02*
X119781250Y-66773750D01*
X122162500Y-125997500D02*
X119781250Y-123616250D01*
%TO.N,Row 4*%
X135815250Y-54877750D02*
X105007250Y-54877750D01*
X138831250Y-153143750D02*
X138831250Y-57893750D01*
X105007250Y-54877750D02*
X103906250Y-55978750D01*
X138831250Y-57893750D02*
X135815250Y-54877750D01*
%TO.N,Col 3*%
X127877500Y-150603750D02*
X127877500Y-83928750D01*
%TO.N,Col 2*%
X108827500Y-83928750D02*
X108827500Y-160128750D01*
%TO.N,Col 1*%
X89777500Y-141078750D02*
X89777500Y-83928750D01*
%TO.N,Col 0*%
X70727500Y-150603750D02*
X80252500Y-160128750D01*
X70727500Y-141078750D02*
X70727500Y-150603750D01*
X70727500Y-83928750D02*
X70727500Y-141078750D01*
%TD*%
M02*
